<?xml version="1.0" encoding="utf-8"?>
<svg xmlns="http://www.w3.org/2000/svg" viewBox="416.9 701.27 344.05 140.42" width="344.05px" height="140.42px" xmlns:bx="https://boxy-svg.com"><defs><clipPath id="clippath-1"><rect class="st4" y="0" width="1197.69" height="1504.16"/></clipPath><clipPath id="clippath-2"><rect class="st4" y="0" width="1197.69" height="1504.16"/></clipPath><style>
      @font-face {
        font-family: 'LaRosmarina WindSong';
        src:
          local('WindSong Medium'),
          local('WindSong-Medium'),
          local('WindSong');
        font-style: normal;
        font-weight: 500;
      }

      @font-face {
        font-family: 'LaRosmarina Montserrat';
        src:
          local('Montserrat Thin'),
          local('Montserrat');
        font-style: normal;
        font-weight: 200;
      }

      .st0 {
        fill: #104241;
      }

      .st1, .st2, .st3 {
        fill: #fff;
      }

      .st4 {
        fill: none;
      }

      .st5 {
        clip-path: url(#clippath-1);
      }

      .st6, .st7 {
        fill: #205356;
      }

      .st6, .st8, .st2 {
        display: none;
      }

      .st9 {
        fill: #688263;
      }

      .st2 {
        font-family: 'LaRosmarina Montserrat', 'Montserrat', sans-serif;
        font-size: 12px;
        font-weight: 200;
      }

      .st10 {
        clip-path: url(#clippath-2);
      }

      .st3 {
        font-family: 'LaRosmarina WindSong', 'WindSong', cursive;
        font-size: 43.34px;
        font-weight: 500;
      }

      .st11 {
        clip-path: url(#clippath);
      }
    </style><bx:export><bx:file format="html" excluded="true"/><bx:file format="svg"/></bx:export></defs><g class="st5" transform="matrix(0.9999999999999999, 0, 0, 0.9999999999999999, -2.842170943040401e-14, -2.842170943040401e-14)"><path class="st0" d="M742.95,841.69h-308.05c-9.9,0-18-8.1-18-18v-59.28c0-9.9,8.1-18,18-18h308.05c9.9,0,18,8.1,18,18v59.28c0,9.9-8.1,18-18,18"/><path class="st0" d="M742.95,841.69h-308.05c-9.9,0-18-8.1-18-18v-59.28c0-9.9,8.1-18,18-18h308.05c9.9,0,18,8.1,18,18v59.28c0,9.9-8.1,18-18,18"/><path class="st0" d="M644.73,757.08c0,30.82-24.99,55.81-55.81,55.81s-55.81-24.99-55.81-55.81,24.99-55.81,55.81-55.81,55.81,24.99,55.81,55.81"/></g><text class="st3" transform="matrix(0.9999999999999999, 0, 0, 0.9999999999999999, 436.39999389648443, 804.2899780273436)" style="white-space: pre;"><tspan x="0" y="0">La R</tspan></text><text class="st3" transform="matrix(0.9999999999999999, 0, 0, 0.9999999999999999, 556.2000122070312, 804.2899780273436)" style="white-space: pre;"><tspan x="0" y="0">o</tspan></text><text class="st3" transform="matrix(0.9999999999999999, 0, 0, 0.9999999999999999, 577.4400024414062, 804.2899780273436)" style="white-space: pre;"><tspan x="0" y="0">s</tspan></text><text class="st3" transform="matrix(0.9999999999999999, 0, 0, 0.9999999999999999, 597.6000366210938, 804.2899780273436)" style="white-space: pre;"><tspan x="0" y="0">marina</tspan></text><g class="st10" transform="matrix(0.9999999999999999, 0, 0, 0.9999999999999999, -2.842170943040401e-14, -2.842170943040401e-14)"><path class="st1" d="M606.09,730.18c.49.78.98,1.57,1.47,2.35,0,.15-.02.31-.03.46-.49-.48-1-.03-1.51-.04.03-.34-.12-.52-.47-.5,0-.09,0-.18,0-.27.42-.35.07-.57-.15-.78-.42-.4-.79-.19-1.22.14.54.18,1.07.18,1.37.64-.75.46-1.06,1.21-1.3,2-.17.18-.66.05-.52.53.17.36.31.75.82.77.29.01.4.22.44.49-.09,0-.19,0-.28,0-.09-.15-.17-.11-.24.02h0c-.24-.1-.46-.28-.75-.27,0-.21-.04-.41-.25-.52-.19-.46-.57-.55-1.01-.53.08-.09.16-.17.25-.26.09-.08.18-.16.26-.24h0c.16-.07.34-.14.32-.33-.02-.23-.25-.16-.4-.16-.18,0-.32.08-.43.22-.08,0-.16,0-.24-.02.03-.2,0-.48.11-.59.41-.38.2-.64-.1-.92-.15-.27-.19-.62-.49-.79.52-.45,1.09-.82,1.41-1.52.28-.62.32-.74-.39-.58-.53.12-.25-.21-.21-.41.54-.46.93.03,1.29.28.52.37.79.15,1.06-.27.07.08.15.16.22.24.06.26.22.35.48.3,0,0,0,0,0,0-.05.37.16.5.49.53"/><path class="st1" d="M597.07,750.86c-.55-.49-1.11-.96-1.65-1.47-.98-.92-1.61-2.11-2.33-3.23,0-.15,0-.3,0-.46.2-.02.39-.05.49-.25.09,0,.17,0,.26,0,.19.15.03.65.51.52.27-.06.75-.4.78-.15.13,1.09.8-.12,1.09.4-.22.26.06.76-.4,1.03-.05-.09.12-.36-.16-.26-.06.02.05.2.16.25.07.11.23.25.28.18.36-.47.99-.63,1.3-1.15.08,0,.16,0,.24.01.08.09.15.18.23.26,0,.08,0,.16,0,.24-.64.42-1.39.76-1.27,1.74.26.01.53-.98.73.03-.43.35-.19.85-.29,1.27-.08,0-.16,0-.24-.01-.04-.12-.08-.14-.1-.06,0,.01.06.04.1.06.09.24.26.42.5.52,0,.08,0,.16,0,.25-.09.09-.18.17-.27.26"/><path class="st1" d="M587.7,748.4c1.65.82,2.17,2.03,1.57,3.7-.07.18-.12.45-.51.42-.7-.06-.67.47-.62.96-.33.17-.67.3-1.05.23,0-.08,0-.16,0-.23.02-.16.05-.36.26-.34.28.03.59.03.47-.32-.09-.25-.44-.44-.75-.38-.62.11-.82,0-.77-.59.03-.33.17-.65-.14-.91,0-.1.02-.19.03-.29.39-.12.77-.26.67-.79.03-.06.06-.11.09-.17.32-.21.59-.46.79-.78.03-.02.08-.06.08-.07-.02-.06-.06-.11-.09-.16,0-.09-.01-.17-.02-.26M588.33,751.09c-.3.3-.57.52-.61.97.62-.1.76-.4.61-.97M587.32,750.88c-.06-.05-.11-.13-.17-.14-.11,0-.14.08-.07.17.02.03.06.07.09.08.09.03.14,0,.15-.11"/><path class="st1" d="M597.07,750.86c.09-.09.18-.17.27-.26.65-.19.24-.65.26-1,.09-.17.18-.34.27-.51.48.31.88.17,1.23-.23.18,0,.36,0,.55.01.04.14-.06.38.23.33.03,0,.08-.05.09-.08.05-.29-.18-.2-.32-.24.11-.24.28-.47.27-.75.08.09.17.18.26.27.14.41.66.75.23,1.26,0,.21.04.4.25.51h0c.1.24.26.43.51.53.05.15.13.31.3.32.22.01.18-.19.2-.33h0c.21-.1.26-.29.26-.51h0c.33.27.47.62.5,1.03-.09,0-.17,0-.25,0-.04-.13-.08-.15-.1-.06,0,.01.07.04.1.06-.09.08-.17.17-.26.25-.21,0-.4.04-.51.25v.27c0,.16-.02.32-.03.48-.16,0-.33.28-.45-.1-.14-.46-.24-.48-.49-.09-.15.23-.26.14-.37.08-.26-.15-.16-.43-.18-.67.29-.1.71.24.9-.3-.34.05-.68,0-.9.3-.31.24-.8.13-1.04.51-.25.05-.42-.04-.49-.29.08-.23.51-.27.36-.58-.13-.27-.44-.17-.68-.11-.16.03-.31.12-.46.19-.23-.11-.34-.33-.48-.53M599.13,750.65c-.12,0-.24,0-.31.13.07.03.14.1.21.1.11,0,.32-.02.33-.07.03-.15-.13-.13-.23-.15M600.24,750.55c-.07.04-.15.06-.2.12-.08.08-.05.17.06.18.07,0,.17-.04.2-.09.02-.05-.03-.14-.05-.21M599.39,751.22s-.08.01-.11.03c0,0,.01.06.02.09.04-.01.08-.01.11-.03,0,0-.01-.06-.02-.09"/><path class="st1" d="M610.21,739.66c.09.73.27,1.46.25,2.18-.02.97.36,1.95-.02,2.92-.26-.03-.49.07-.71.18-.57.3-.62-.04-.59-.48.14.03.28.2.4.07.14-.15-.02-.25-.14-.33-.3-.26-.64-.52-.86.03-.13.32-.27.3-.56.28-1.02-.08-1.02-.06-1.4.92h0c-.4-.44-.32-.86.14-1.17.4-.27.7-.67,1.17-.84.23-.08.31-.33.6-.39.6-.12.52-1,1.14-1.16-.14-.34-.23-.69-.44-1.02-.42-.65-.32-.81.57-1.21.15,0,.3,0,.45.01"/><path class="st1" d="M602.15,751.21c.08,0,.17,0,.25,0-.01.08-.02.16-.04.25-.04.23-.31.48-.04.67.29.2.35-.13.52-.28.23-.2.6-.18.95.09-.43.3-.88.54-1.21.88-.32.32.05.37.28.43.16.28.33.25.51.01.21-.02.39-.1.53-.28.16-.2.34-.19.51.02,0,.1,0,.2,0,.3.1.22.15.56.39.57.28,0,.32-.32.34-.57,0-.08,0-.17.01-.25.17,0,.34-.01.5-.02-.09.25-.26.53.23.52,0,.09,0,.18,0,.28-.11.04-.12.08-.05.1.01,0,.04-.06.06-.09.24-.1.27-.31.28-.53h0c.08,0,.17,0,.26,0,.1.21.28.25.49.26-.04.47-.64.32-.76.7-.08.04-.15.08-.23.11-.14-.01-.25.03-.32.15-.35-.13-.71-.16-1.08-.17-2.03-.05-3.83-.74-5.44-1.96.08-.08.36.1.25-.18-.02-.06-.19.07-.26.17-.13-.02-.23-.08-.27-.22.24-.38.73-.27,1.04-.51h0c.02.23-.07.51.18.67.1.06.22.16.37-.08.25-.39.35-.37.49.09.12.39.29.11.45.1.09.1.19.14.23-.02.05-.19,0-.37-.2-.46,0-.09,0-.18,0-.28.21,0,.4-.04.51-.25.09-.08.17-.17.26-.25Z"/><path class="st1" d="M590.74,737.26l-.07-.5c.3-.07.57.28.87.14.03-.37-.45-.44-.34-.79.52.09.86-.14,1.07-.6h0c.15.02.37-.01.36.22-.01.3.14.45.39.56.41.27.52.83.99,1.03.09,0,.18,0,.26,0,0,.09,0,.17-.01.26h0c-.08.08-.17.16-.25.24-.09,0-.18,0-.27,0-.25,0-.51-.01-.76-.01.04-.12.13-.25.1-.36-.04-.15-.2-.12-.31-.04-.15.11-.26.24-.05.4.24.39.31.87.71,1.2.48-.77,1.12-.38,1.72-.26.59.12.1.41.08.62-.09,0-.18,0-.27.01-.16,0-.32-.01-.48-.02-.02-.15,0-.33-.18-.41-.03-.01-.15.07-.14.08.04.17.18.25.33.32,0,.17,0,.34-.01.51-.29.25-.75-.48-.93.13-.17.59-.4.09-.6.1-.08-.09-.16-.17-.24-.26.02-.14.21-.34.02-.39-.26-.07-.25.21-.29.38-.2.11-.25.3-.26.52-.51.07-.6-.14-.38-.56-.88-.1-.39-.38-.03-.49.75-.23.85-.63.45-1.24-.04-.13-.08-.15-.1-.06,0,.01.07.04.1.06-.17.21-.36.21-.51,0-.21-.29-.5-.27-.8-.25h0c.06-.21.03-.4-.18-.54"/><path class="st1" d="M589.5,712.57c-.22.43-.08.87-.13,1.31.46.89,0,1.68-.27,2.5-.04.01-.09.01-.13,0,.14-.52.12-.56-.17-.55-.16.1-.16.21,0,.31,0,.08.01.16.05.24-.1.09-.19.17-.29.26-.03.08-.05.15-.04.24-.28.4-.37,1.43-.11,1.7.07.07.23.05.35.08,0,.28.06.59-.3.72-.02-.15.02-.34-.17-.39-.14-.04-.24.06-.21.2.04.2.22.18.38.2.01.18.02.37.04.56-.22,0-.45-.05-.52.25-.17.22-.34.2-.48-.01-.13-.19-.31-.26-.52-.28.1-.92.47-1.76.74-2.64.45-1.4.79-2.84,1.12-4.27"/><path class="st1" d="M578.87,757.1c.58-1.18,1.59-1.08,2.64-.88.2.95.28,1.01,1.15.93.24.68.7,1.31.51,2.09-.36.31-.17,1.14-.97,1.05,0-.09-.02-.17-.02-.26.12-.07.35.02.33-.21,0-.06-.2-.1-.31-.15,0-.06,0-.11-.02-.17h0c.25-.19.22-.37,0-.54-.11-.2-.26-.3-.49-.22-.51-.03-.58-.48-.77-.81-.17-.31-.49-.38-.77-.51-.45-.02-.9,0-1.27-.33"/><path class="st1" d="M594.09,728.11c.17-.58.67-.73,1.15-.91.02.15.03.31.05.46.13-.07.26-.14.4-.2h0c.69.97.6.9,1.2.02.49-.73-.34-.88-.35-1.34.68-.14,1.36-.56,2.01.09-.27.33-.24.67,0,.99q.27.93-.56,1.29c-.11.05-.21.13-.32.19-.07,0-.13.02-.19.04-.34.18-.68.23-1.02-.01-.35-.25-.59-.13-.77.22-.07.01-.15.02-.22.02-.09,0-.19-.02-.28-.03-.57-.01-.6-.73-1.1-.84M597.91,728.13s.07.03.1.03c.01,0,.02-.05.04-.08-.03-.01-.07-.03-.1-.03-.01,0-.02.05-.04.08"/><path class="st1" d="M604.9,729.1c-.27.41-.54.63-1.06.27-.35-.25-.74-.74-1.29-.28h0c-.05-.68-.51-.16-.76-.27q.4-.89-.45-.97c.01.39.16.72.46.97,0,.26-.02.52-.03.77-.18.09-.35.17-.53.25-.08-.09-.17-.17-.25-.26.1-.09.19-.17.29-.26.12-.04.14-.08.06-.1-.01,0-.04.07-.06.1-.45-.66-.68-1.52-1.62-1.74-.18-.04-.1-.37-.11-.58h0c.34.05.74-.13,1.02.16.07.07-.13.4.22.32.24-.06.27-.28.29-.49,1.22-.17,2.02.7,2.92,1.26.32.2.72.44.9.85"/><path class="st1" d="M594.99,726.39c-1.37-1.53-2.72-3.08-4.54-4.1.3-.16.37-.48.52-.74,1.47.96,2.88,2.02,4.16,3.22.19.18.39.32.39.61-.26-.07-.57-.24-.52.29.02.24,0,.48-.02.72"/><path class="st1" d="M609.14,744.47c-.03.44.02.78.59.48.22-.11.45-.22.71-.18.37.95-.06,1.87-.14,2.79-.12,1.42-.56,2.8-1.28,4.07.02-.06,0-.11-.04-.14-.04-.07-.11-.12-.19-.14-.01-.08-.02-.17-.04-.25.26-.29-.06-.74.28-1.01.08-.09.17-.17.25-.25,0-.09,0-.18.01-.26,0-.08,0-.17,0-.25.31-.25-.07-.51.02-.76h0c.21-.11.25-.3.26-.51.2-.37-.15-.18-.25-.25h0c.27-.28.62-.53.53-1.01.13-.04.15-.08.06-.1-.01,0-.04.07-.06.1-.45.04-.56-.56-1.01-.53h0c.08-.23.52-.29.39-.55-.19-.38-.42-.12-.67.04-.22.14-.18-.14-.21-.27,0-.08,0-.16,0-.24.08,0,.17,0,.25,0,.08-.08.17-.17.25-.25,0-.17.02-.33.02-.5.08,0,.16,0,.25,0h0Z"/><path class="st1" d="M581.83,750.61c.28-.4.96-.41,1.01-1.03.09-.08.17-.16.25-.25.09,0,.18,0,.28,0-.02.46-.02.87.65.6.21-.09.38.1.57.16-.12.39-.33.72-.59,1.04-.15.17-.15.37.12.45.07.02.15.04.22.04.05.13.14.21.28.23.07.04.15.05.23.05.11.19.29.26.49.27.09,0,.18.01.27.02-.09.15-.17.3-.26.46-.08,0-.17,0-.25,0h0c-.09-.06-.19-.13-.28-.19-.34.08-.64-.39-.99-.07-.17,0-.34,0-.51,0-.09-.01-.17-.02-.25-.03-.18-.26-.24-.04-.32.08-.33-.07-.13-.52-.43-.61-.11-.22-.33-.25-.53-.3-.16-.22-.29-.45-.22-.74h0c.15,0,.24-.07.28-.2M583.08,750.59c-.12-.04-.31-.13-.34-.1-.24.31.03.48.22.67.15-.17.1-.38.12-.57.09-.07.37.1.26-.18-.02-.06-.2.07-.26.18"/><path class="st1" d="M582.66,757.15c-.87.08-.94.02-1.15-.93.79-.57,1.26-1.33,1.27-2.32.43.14,1.12-.3,1.23.55-.26-.12-.5-.15-.52.23-.03.78-.12,1.58.56,2.19.18.16.29.4.43.61,0,.35-.18.49-.51.49h0c-.02-.14-.11-.21-.23-.25-.2-.3-.39-.62-.62-.91-.08-.11-.23-.3-.39-.13-.09.1-.06.3-.08.45"/><path class="st1" d="M567.82,724.1c-.39-.43-.24-.84.02-1.26.32-.06.09-.6.64-.59-.25.69.19.77.7.79.52.03.57-.51.63-.75.13-.48-.39-.4-.7-.47-.13-.56.6-.21.71-.63-.3-.06-.53-.11-.77-.16.41-.32.89-.26,1.35-.2q-.21.91.73,1.3c-.02.21-.09.39-.25.53-.2,0-.39,0-.48.23,0,.16,0,.33-.01.5-.21.81-1.02.87-1.58,1.25-.15-.24-.31-.48-.45-.73-.09-.16-.03-.48-.32-.43-.32.07-.19.4-.24.61M568.96,723.97c.14,0,.23-.08.25-.2.01-.06-.04-.15-.09-.19-.11-.09-.22-.05-.25.09-.03.11-.02.23.09.31"/><path class="st1" d="M571.56,731.09c-.41.97-1.14,1.23-2.11.96,0-.08,0-.16.01-.25.31-.05.81.09.51-.53-.08-.17-.16-.35-.25-.52.17-.25.16-.51,0-.76.38-.26-.21-.82.32-1.04.66.21,1.47-.11,1.98.61.02.29.05.59-.19.82-.09-.17-.05-.46-.34-.45-.22.01-.21.22-.23.39-.02.3,0,.6.3.78M570.62,730.13c-.03-.13-.1-.22-.23-.2-.05,0-.1.1-.12.16-.02.11,0,.24.13.26.12.01.2-.09.22-.22"/><path class="st1" d="M590.97,735.21c-.04-1.55.5-2.94,1.11-4.33,0,.05.02.1.06.14.07.05.14.11.21.16.03.44-.47.81-.19,1.3.37-.65.96-.45,1.49-.36.38.07.42-.14.47-.4.17,0,.34,0,.51.01h0c0,.08,0,.17,0,.25,0,.18-.01.35-.02.53-.42,0-.84.02-1.25-.04-.69-.1-.61.31-.55.74-.34,0-.5.18-.51.52-.17.08-.34.16-.51.24-.35-.2-.2.12-.24.24.08.17.15.34.23.51-.15.07-.22.15-.02.24.08.01.17.02.25.04h.02c.08.08.17.17.25.26,0,.08,0,.16,0,.24h0c-.44-.05-.83-.35-1.3-.29"/><path class="st1" d="M577.4,754.57c-.25-.01-.5-.03-.76-.04-.51-.01-.78-.11-.58-.76.16-.5.08-1.08.1-1.62.01-.34-.02-.68.3-.92.33-.03.67-.1.99-.07.42.03.55.38.23.69-.25.24-.57.4-.28.8.33.47.5-.32.81-.12.06.04.16,0,.25,0,.12.26-.89.51,0,.77-.09.16-.18.33-.27.5-.66.12-1.07-.47-1.68-.7-.11.64-.14,1.11.62,1.1.21,0,.27.14.34.29l-.07.08Z"/><path class="st1" d="M584.8,737.62c-.08.45.49.86.06,1.32-.06-.21-.17-.41-.39-.41-.17,0-.27.18-.24.36.06.54-.32,1.02-.19,1.56h.01c-.25-.18-.51-.36-.76-.54-.01-.11,0-.24-.17-.2-.02,0,0,.13-.01.2-.06,0-.12-.01-.18-.02-.25-.22-.15-.5-.13-.76.23.04.52.14.64-.12.16-.35-.32-.38-.41-.62q.62-.6.05-1.07c0-.18.02-.35.17-.48.05.02.09.03.14.04-.03.16.04.24.2.23.45-.16.54-.46.39-.9-.06-.18.1-.33.29-.31.21.02.23.18.19.37-.04.2-.08.41-.08.62,0,.32-.08.72.44.73"/><path class="st1" d="M585.71,732.07c-.09.17-.17.35-.26.52-.28.41-.64.82-.03,1.26-.4.54-.07,1.28-.48,1.82-.04-.19-.08-.38-.11-.57-.26.06-.15.44-.48.41-.08-.33.1-.63.16-.94.05-.24-.13-.38-.34-.46.01-.8.18-1.57.53-2.3.07.09-.1.38.19.25.07-.03-.07-.2-.19-.25.04-.52-.14-1.08.26-1.54,0,0,.06.07.06.07-.04.35.19.45.47.51,0,.07,0,.15,0,.22.05.34-.18.74.23,1.01"/><path class="st1" d="M575.06,730.37c-.85-.18-1.12-.94-1.52-1.56.03-.17.05-.34.08-.51.17,0,.34,0,.51,0,.36.28.68.62,1.21.53.86.03,1-.88,1.57-1.22h0c.09,0,.19.02.28.03.28.6.46,1.12-.54,1.12-.43,0-.36.46-.52.73-.17.3-.5-.55-.77,0-.02.03-.01.08-.01.12h0c-.32.17-.26.49-.28.77"/><path class="st1" d="M585.16,762.07c-.23.03-.4-.05-.5-.26.29-.13.58-.25.86-.38-.26-.6-.85-.02-1.13-.4.02-.42.04-.83.06-1.25h0c.09.02.18.02.27.03.16.19.1.68.49.52.26-.11.73-.37.24-.8.17-.16.34-.33.52-.49,0,0,.07.03.07.03,0,.13.08.2.2.23.08.09.16.17.25.26h0c.18.32.27.66.24,1.03-.09.17-.17.33-.26.5.02.51-.18.8-.74.76-.22-.02-.41.05-.56.23"/><path class="st1" d="M593.1,745.71c0,.15,0,.3,0,.46-.29-.29-.47-.65-.6-1.03.01-.03.04-.06.03-.08-.02-.05-.05-.1-.08-.15-.38-.1-.48-.43-.57-.74-.32-1.09-.86-2.14-.75-3.33.1,0,.2,0,.29,0,0,.08.01.15.02.23,0,.2,0,.39,0,.59-.01.05-.02.1,0,.15.02.15.1.25.23.32.64.74,1.2.25,1.76-.19-.25.38-.36.76-.61,1.09-.4.54-.22,1.23.29,1.66,0,.08,0,.17,0,.25h0s-.1.07-.09.08c.02.06.06.12.09.18h0v.52"/><path class="st1" d="M573.45,720.67c-1.02-.98-.82-2.01-.14-3.06.33-.26.66.02.98.02h0c.07.66-.56,1.11-.54,1.76-.09.06-.35-.11-.25.17.02.05.2-.06.25-.17.24.04.65.12.57.31-.16.4.34.99-.34,1.22h0c-.18-.09-.35-.17-.53-.26"/><path class="st1" d="M591.41,740.83c-.1,0-.2,0-.3,0-.38-.99-.58-2-.2-3.04.3-.02.59-.04.8.25.15.21.34.22.51,0h0c.4.61.3,1.01-.45,1.24-.36.11-.85.38.03.49-.23.42-.14.64.38.56.08.25.16.51.24.76-.31-.18-.64-.31-1.01-.27"/><path class="st1" d="M576.91,726.31c.16.35.72.34.73.83-.63.13-1.45-.82-1.91.32-.01.03-.18.03-.23-.01-.86-.74-1.43.06-2.09.39,0-.53-.24-1.09.22-1.56,0,.16.01.33.02.51,1.07-.49,2.1-.95,3.26-.48"/><path class="st1" d="M586.16,722.43c.3-.38-.1-.53-.26-.76.46.02.79-.01.68-.67-.05-.31.24-.69.56-.12-.2.2-.29.44-.08.66.14.15.29.01.37-.15.08.03.16.05.24.07.12.21.32.24.53.26-.43.41-.08,1.1-.52,1.51-.05-.27.08-.58-.22-.93-.47.87-.5,1.83-.88,2.67-.22-.03-.46-.1-.39-.37.15-.56.07-1.16.33-1.7.16-.34-.09-.43-.37-.47"/><path class="st1" d="M578,750.24q.72-1.17,1.81-.49c-.29.65.27,1.17.27,1.78,0,.08.16.23.25.23.51-.02.72.57,1.2.58h0c0,.09,0,.18,0,.27h0c-.55.09-1.04-.25-1.58-.25-.16-.18-.47-.37-.47-.54.04-1.05-.81-1.22-1.48-1.58"/><path class="st1" d="M575.06,730.37c.02-.28-.05-.6.28-.78.08.09.16.17.25.26.01.03.02.06.04.09.01.01.04.01.07.02-.04-.04-.07-.07-.11-.11-.08-.08-.17-.17-.25-.26,0-.04,0-.09.01-.12.27-.55.6.3.77,0,.15-.27.09-.73.52-.73,1.01,0,.83-.52.54-1.12.15-.09.3-.17.45-.26.26,1.06.13,2.02-.73,2.78-.18.03-.27.13-.26.31,0,.06-.02.11-.07.15-.36-.27-.71-.14-1.05.05-.15-.1-.3-.2-.45-.3"/><path class="st1" d="M587.1,753.7c.38.07.72-.06,1.05-.23.44.43.05,1.1.45,1.55-.17.33-.37.66-.24,1.05-.28.48-.72.68-1.25.73-.12,0-.23,0-.35-.01h0c0-.09.02-.18.03-.28.18-.09.18-.17,0-.26.4-.25-.21-.78.28-1.01.08,0,.17,0,.25,0,.08.17.16.18.25,0,0-.08,0-.16.01-.24.19-.04.46-.04.38-.32-.05-.21-.26-.1-.41-.05-.08.03-.15.06-.22.09h0s-.23-1.05-.23-1.05Z"/><path class="st1" d="M572.02,729.56c-.5-.71-1.32-.4-1.98-.6-.07-.35-.02-.83-.64-.57-.44.19-.8-.02-1.17-.22.16-.25.32-.5.48-.75.16.04.38.03.47.14.37.44.65-.02.96-.06.68-.09.36.82.59.78.36-.05.73.22,1.07-.02.08,0,.16,0,.24,0,.13.43.13.86-.03,1.29"/><path class="st1" d="M594.99,726.39c0-.24.04-.49.02-.72-.05-.53.26-.35.52-.29h0c.13.34.36.53.74.52.09.08.19.16.28.25.01.46.84.61.35,1.34-.6.88-.51.95-1.2-.02.18-.06.44-.02.42-.33,0-.03-.05-.09-.08-.09-.31-.03-.28.24-.34.42-.13.07-.26.14-.4.2-.02-.15-.03-.31-.05-.46.17-.19.13-.38.01-.57,0-.17-.11-.23-.26-.24h0Z"/><path class="st1" d="M584.72,759.81c-.09,0-.18-.01-.27-.02.02-.7-.2-1.51.79-1.78.04.13.08.15.1.06,0-.01-.07-.04-.1-.06,0-.16,0-.32,0-.48h.28c.27.33.52.29.77-.03.07-.01.14-.01.21.01.17.32.48.28.77.28.17.26.54.39.5.78-.25-.07-.5-.38-.77-.03l-.25.04c-.16-.03-.33-.06-.49-.09-.5-.02-.14.4-.29.56-.17.16-.34.33-.52.49-.16.02-.32.04-.48.06-.13,0-.21.08-.24.21v.02Z"/><path class="st1" d="M587.15,720.88c-.33-.57-.62-.19-.56.12.11.66-.22.69-.68.67-.08-.09-.16-.18-.25-.26.05-.28-.35-.82.41-.7.03,0,.08-.21.12-.33.12-.17.31-.23.5-.25.14-.03.23-.1.27-.24h0c.21.02.39.08.52.27.14.21.32.23.48.01.25.06.48.45.75.03.24.08.4.27.55.46-.35.15-.53.41-.55.78-.17.08-.33.17-.49.25-.21-.02-.41-.04-.53-.26.25-.53-.17-.47-.46-.52l-.07-.06Z"/><path class="st1" d="M572.1,724.97c-.5.19-1.01.35-1.49.57-.39.18-.71.06-1.04-.14.07-.22-.17-.7.38-.52.39.13.63.21.55-.35-.02-.17.17-.31.33-.31.89,0,.99-.75,1.3-1.31.09-.08.18-.15.27-.22.4.48-.08.96,0,1.44-.08.29-.62.42-.3.85"/><path class="st1" d="M577.63,727.37c-.15.09-.3.17-.45.26-.09-.01-.19-.03-.28-.04-.04-.12-.09-.14-.1-.06,0,.01.06.04.1.06-.57.35-.71,1.25-1.57,1.22.01-.08.03-.16.04-.24.03-.02.09-.05.09-.07-.02-.06-.05-.12-.08-.18.16-.36.04-.51-.34-.59-.5-.1-.83-.02-.91.54-.17,0-.34,0-.51,0-.08-.1-.15-.2-.23-.3,0-.05,0-.11.02-.16.66-.33,1.23-1.13,2.09-.39.05.04.22.04.23.01.47-1.14,1.28-.2,1.91-.33.02.08.02.16,0,.24"/><path class="st1" d="M585.09,752.66c.08,0,.17,0,.25,0,.55,0,1.03.1,1,.81-.08.08-.16.16-.24.25l-.02.02c-.1.08-.19.16-.29.23-.23.09-.41.25-.5.49h0c-.43.88-.4,1.11.21,1.53-.16.32-.63.17-.78.51-.43-.54-.75-1.11-.66-1.83.15.07.34.23.43.19.34-.15.5-1.15.31-1.66.09-.18.18-.36.27-.54"/><path class="st1" d="M581.54,752.34c-.48-.01-.69-.59-1.2-.58-.08,0-.25-.15-.25-.23,0-.61-.56-1.13-.27-1.78.08,0,.16.01.23.03.12.21.32.25.53.23.51.04.52.68.96.8-.07.29.06.52.22.73l.02.03c-.12.04-.19.13-.2.26-.01.17-.03.34-.04.5"/><path class="st1" d="M578.2,753.81c.09-.17.18-.33.27-.5.25,0,.49-.01.74-.02.22,0,.4-.03.35-.31-.06-.35.18-.38.43-.41l.52.26c0,.43,0,.86,0,1.3-.03.07-.05.15-.05.23-.07.05-.14.06-.21.05-.05-.24-.05-.55-.43-.46-.23.06-.54.12-.48.45.01.09.27.15.41.22-.57.4-1.19.29-1.81.16,0-.07,0-.14,0-.22h0c.56-.09.7-.33.27-.77h0"/><path class="st1" d="M584.74,756.49c.15-.34.62-.19.78-.51.28-.35-.09-1,.57-1.21.21-.07.03-.35-.03-.54.01-.17.02-.33.04-.5l.02-.02c.07,0,.15,0,.22-.01h0c0,.67.57.79,1,1.04h0c.08.09.17.18.25.27,0,.08,0,.16-.01.25-.08,0-.17,0-.25,0-.08,0-.17,0-.25,0-.12-.18-.26-.57-.48-.23-.25.39-.41.91.2,1.24.17.09.17.17,0,.26-.08.1-.16.19-.23.28h0c-.22,0-.44,0-.66,0-.46.17-.84.07-1.16-.3"/><path class="st1" d="M579.32,761.48c-.22.05-.38.19-.48.38-.14.27-.38.18-.54.08-.37-.24.07-.27.14-.39.11-.2.12-.39,0-.59-.47-.72-.41-1.52-.31-2.32.26.01.61.08.58.33-.08.57.46.62.66.94.01.4.63.87-.12,1.21-.02,0,.05.23.08.35"/><path class="st1" d="M576.35,716.89c.25.05.44.17.52.43-.31.41-.08,1.04-.58,1.37-.08,0-.16-.01-.25-.01h0q-.41-.81-1.02-.26c-.08-.01-.15-.01-.23,0-.12-.07-.18-.16-.09-.3.11-.16.32-.3.13-.52-.18-.21-.37,0-.56.03h0c0-.24.02-.49.02-.74h.01c.67.19,1.35-.07,2.02.01"/><path class="st1" d="M586.16,722.43c.28.04.53.13.37.47-.26.54-.18,1.14-.33,1.7-.07.27.17.34.39.37.03.3-.08.66.3.84-.01.15-.03.3-.04.45-.28-.01-.49.08-.49.4,0,.28.2.31.42.31.01.14-.04.24-.16.31-.23-.02-.42.03-.54.24-.08,0-.16,0-.25,0-.1-.42.29-.85,0-1.27.03-.01.06-.02.09-.04.02-.01.01-.04.02-.07-.04.04-.07.07-.11.1-.08,0-.17,0-.25,0,.02-.94.4-1.84.31-2.79.21-.11.26-.3.24-.51.01-.16.02-.33.04-.49"/><path class="st1" d="M608.61,734.52c.51.61.77,1.32.93,2.08-.37.39-.77.58-1.27.22-.43-.6.05-1.39-.42-2-.1-.13.24-.26.45-.29.1,0,.2-.01.31-.02"/><path class="st1" d="M578.06,721.3c0,.08-.02.15-.06.22-.12.07-.19.17-.2.31.03.06.03.11,0,.16-.17-.07-.34-.14-.51-.21l-.02-.06c.25-.64-.03-1.28,0-1.93.01-.23-.24-.3-.45-.34.08-.17.16-.35.23-.53.18-.17.36-.33.54-.5.64.55.81,1.27.72,2.07-.32.19-.26.5-.25.8"/><path class="st1" d="M579.99,752.57c-.25.03-.49.07-.43.41.05.29-.14.32-.35.31.05-.55.05-1.06-.72-1.01-.04-.76-.56-1.26-1-1.8.17-.08.35-.16.52-.25.67.35,1.52.52,1.48,1.58,0,.17.3.36.47.54.02.07.03.14.04.22"/><path class="st1" d="M584.82,753.19c.19.51.03,1.51-.31,1.66-.1.04-.29-.12-.43-.19-.04-.06-.06-.13-.06-.21-.11-.85-.8-.41-1.23-.55.01-.34.03-.68.04-1.03.19-.12.22-.3.22-.5.09.01.17.02.25.03.02.36.22.5.57.47.3.16.47.69.95.32"/><path class="st1" d="M569.11,721.82c.31.07.82,0,.69.47-.06.23-.1.77-.63.74-.5-.02-.95-.1-.7-.79-.55-.01-.32.53-.64.59.03-.58.02-1.17.11-1.74.03-.2.04-.5.33-.65.12.21.24.42.36.62-.48.64.26.54.47.76"/><path class="st1" d="M572.13,722.91c-.3.56-.41,1.32-1.29,1.31-.16,0-.36.14-.34.31.08.56-.16.48-.55.35-.55-.18-.31.3-.38.51-.26-.17-.52-.34-.77-.51,0-.08.01-.16.01-.24h0c.55-.38,1.36-.43,1.58-1.25.54,0,1.14.18,1.41-.54,0-.02.22.04.33.06"/><path class="st1" d="M608.28,736.83c.5.35.9.16,1.26-.22.37.99.36,2.06.66,3.06-.15,0-.3,0-.45-.01-.01-.08-.02-.17-.02-.25-.08-.09-.16-.18-.24-.27.07-.16.15-.32.22-.48-.15-.34-.46-.26-.73-.29-.56-.36-1.13-.72-.72-1.54"/><path class="st1" d="M590.43,710.54c-.12,1.12-.68,2.13-.84,3.24,0,.04-.15.06-.23.09.05-.43-.09-.88.13-1.31"/><path class="st1" d="M568.23,728.17c.37.2.73.41,1.17.22.62-.27.57.21.63.57-.53.22.06.77-.32,1.04-.24-.03-.66.07-.64-.23.09-1.29-.52-.38-.86-.3-.18-.31-.49-.26-.77-.26.2-.39.45-.74.78-1.02"/><path class="st1" d="M584.17,734.1c.21.09.38.22.34.46-.06.31-.24.61-.16.94.33.03.22-.35.48-.41.04.19.07.38.11.57-.03.41-.07.82-.1,1.22-.25.16-.25.34-.03.54.01.07.01.14,0,.2-.52-.01-.44-.41-.44-.73,0-.21.03-.42.08-.62.04-.19.03-.35-.19-.37-.18-.01-.35.14-.29.31.16.44.06.74-.39.9-.01-.12-.08-.2-.2-.23-.05-.01-.1-.02-.14-.04.52-.5.32-1.24.61-1.83.14-.28.18-.62.33-.92"/><path class="st1" d="M579.35,759.92c-.19-.32-.73-.37-.66-.94.03-.25-.32-.32-.58-.33.04-.28-.05-.6.22-.81.05.21.05.55.41.3.25-.18.45-.04.66.03.03.07.09.15.08.22q-.1,1.08.89.85c.08-.02.17-.03.25-.04-.14.45.32.52.5.76-.08.09-.17.17-.25.26-.26.16-.51.16-.75-.02-.06-.32-.11-.64-.52-.26-.08,0-.17,0-.25-.02"/><path class="st1" d="M576.49,722.45c-.09,0-.17.02-.26.03-.11-.18-.19-.13-.25.03-.86-.01-1.66-.14-2.05-1.05.33-.14.09-.34.05-.52h0c.25,0,.5,0,.75,0,.28.48.67,1.04,1.21.83.49-.18.89.06,1.31-.05l.02.06c-.17.15-.33.3-.5.45-.1.07-.19.15-.29.22"/><path class="st1" d="M586.99,758.53c.27-.35.52-.04.77.03.35.83.89,1.64.21,2.55-.08.09-.16.19-.24.28h.01c-.18-.02-.36-.03-.54-.04-.07-.09.11-.37-.18-.26-.06.02.07.2.18.26.04.15.16.31.02.43-.14.12-.31.05-.42-.09-.15-.18-.11-.48-.34-.61.09-.17.17-.33.26-.5,1.16.09,1.16.08.88-1.05-.04-.16-.07-.32-.1-.48-.08-.08-.15-.16-.22-.23-.09-.1-.18-.2-.28-.29"/><path class="st1" d="M573.84,724.44c.49-.33,1.03-.54,1.6-.7.33.02.53.18.52.53-.24.42-.33.83,0,1.25-.38.37-.76.39-1.12-.03.26-.68-.14-.76-.66-.72-.11-.11-.22-.22-.33-.33"/><path class="st1" d="M571.8,728.26c-.34.24-.7-.03-1.07.02-.23.03.09-.87-.59-.79-.32.04-.59.5-.97.06-.09-.1-.31-.1-.47-.14.37-.23.74-.46,1.11-.7.54.52.95.53,1.78.02-.07.29.14.49.2.74-.4.25-.08.51,0,.77"/><path class="st1" d="M579.3,722.3c1.14-.54,2.32-.99,3.57-1.2v.55c-.89.41-1.77.91-2.79.95-.17-.34-.5-.26-.78-.3"/><path class="st1" d="M582.95,744.99c.09-.59.19-1.19.28-1.78.08-.27-.21-.72.27-.79.32-.04.5.23.49.57-.03.67-.06,1.35-.09,2.02-.08.09-.16.17-.24.26-.07,0-.13,0-.2,0-.12-.19-.31-.25-.51-.27"/><path class="st1" d="M572.13,722.91c-.12-.02-.33-.08-.33-.06-.27.72-.87.55-1.41.54,0-.17,0-.33.01-.5.2,0,.37-.05.48-.23.17-.14.24-.32.25-.53.27-.27-.03-.68.23-.95.41.46,1.1.72,1.03,1.5-.09.08-.18.15-.27.22"/><path class="st1" d="M579.35,759.92c.08.01.16.02.25.02.17.09.35.17.52.26.24.18.5.18.75.02,0,.16,0,.32,0,.48-.29.28.07.56,0,.84-.53.33-1.05.16-1.56-.06-.03-.12-.1-.34-.08-.35.75-.34.13-.81.12-1.21"/><path class="st1" d="M587.7,748.4c0,.09.01.17.02.26-.04.08-.04.16.01.23-.2.33-.47.58-.79.79-.28-.06-.61.01-.79-.3.64-.44-.24-.88,0-1.32.58-.17,1.08.02,1.55.34"/><path class="st1" d="M581.12,759.96c-.18-.25-.64-.31-.5-.76,0-.08,0-.16,0-.24.02-.28.08-.58-.21-.78,0-.08-.02-.17-.04-.25.18,0,.36,0,.53,0,.19.33.26.78.77.81-.01.37.16.62.5.77.02.05.03.11.02.17-.19.11-.24.23-.02.36,0,.09.02.17.02.26-.06.19-.12.38-.32.48,0-.51-.27-.77-.77-.81"/><path class="st1" d="M573.84,724.44c.11.11.22.22.33.33-.6.57-1.41.8-2.07,1.28,0-.11,0-.22-.01-.32,0-.08.01-.17.02-.25h0c.27-.17.36-.34,0-.5h0c-.32-.43.22-.56.3-.85.46.21.89.53,1.44.32"/><path class="st1" d="M569.46,731.8c0,.08-.01.16-.02.25-.17.07-.34.15-.51.22-.27-.14-.32-.56-.7-.55-.13-.15-.3-.26-.31-.48.04-.06.08-.11.12-.17-.1-.04-.2-.07-.31-.11-.07-.06-.09-.14-.08-.23.26-.07.45-.24.56-.49.08,0,.15,0,.23,0,.02.2.06.39.27.49.32.62.68-.02,1.01.03.08.17.16.35.25.52-.18.17-.67.04-.51.53"/><path class="st1" d="M582.88,721.65v-.55c.08,0,.17,0,.25,0,.17-.05.33-.1.5-.15.02-.04.06-.06.11-.06.51-.08,1.14.16,1.44-.52.34,0,.67.01,1.01.02-.04.11-.1.33-.12.33-.76-.11-.36.42-.41.7-.25,0-.5-.02-.75-.02-.08.04-.15.09-.23.13-.18-.05-.35-.1-.53-.15-.09.07-.17.15-.26.22-.34.02-.67.04-1.01.06"/><path class="st1" d="M586.16,748.06c-.24.44.64.88,0,1.32-.3,0-.55.1-.69.37-.16.32-.37.2-.59.12v-.86c.27-.51.65-.9,1.28-.94"/><path class="st1" d="M585.82,727.5c.08,0,.16,0,.25,0,.27.43-.34.85-.03,1.28-.01.09-.02.18-.03.27-.32.32-.39.65,0,.97-.07.16-.14.32-.21.49l-.05.04c-.24-.08-.48-.15-.72-.23l-.06-.07c.11-.67.21-1.34.32-2,.09-.08.18-.15.27-.23.19-.12.22-.32.27-.52"/><path class="st1" d="M588.7,721.46c.03-.37.2-.64.55-.78.57.29,1.14.58,1.71.87-.16.26-.23.58-.52.74-.5-.17-.91-.59-1.48-.58-.09-.08-.18-.16-.26-.24h0Z"/><path class="st1" d="M577.48,750.48c.45.54.96,1.04,1,1.8,0,.09-.01.17-.02.26-.08,0-.19.03-.25,0-.31-.2-.48.59-.81.12-.28-.4.04-.56.29-.8.31-.31.18-.65-.23-.69-.33-.03-.66.05-.99.07.2-.43.52-.71,1.01-.76"/><path class="st1" d="M574.83,725.48c.36.42.74.4,1.12.03.35.03.7.07.99.28,0,.1.02.21.03.31-.01.07-.03.14-.06.2-1.16-.46-2.19,0-3.26.48,0-.18-.01-.35-.02-.51.4-.26.8-.53,1.2-.79"/><path class="st1" d="M586.88,725.8c-.38-.18-.26-.54-.3-.84.38-.84.41-1.8.88-2.67.3.34.17.65.22.93-.39.82-.36,1.78-.81,2.58"/><path class="st1" d="M593.18,729.16c-.05-.08-.04-.15.02-.22.52-.1.93.02,1.2.51-.07.52-.54.95-.3,1.53-.44,0-.82-.1-.98-.57-.09-.26-.19-.52-.28-.78,0,0,.01-.02.01-.02.34.2.74.44.86-.17.08-.41-.32-.24-.53-.28"/><path class="st1" d="M608.75,751.08c.01.09.02.17.04.25.02.11.05.19.19.14.04.04.06.09.04.15-.29.47-.6.92-1.03,1.28-.08-.03-.16-.03-.25-.02-.33-.36-.54-.03-.77.14-.35.26-.24-.09-.29-.22.09-.16.18-.33.28-.49.92.06,1.19-.83,1.79-1.23"/><path class="st1" d="M579.99,752.57c0-.07-.02-.15-.04-.22.54,0,1.02.34,1.58.25,0,.21-.02.41,0,.62.04.37.26.17.43.12-.02,1.06-.85.91-1.51,1.02,0-.08.02-.16.05-.23.09-.02.17-.04.26-.06.03-.02.06-.04.1-.06-.04-.05-.08-.1-.12-.15.22-.41.32-.8-.24-1.03l-.51-.26Z"/><path class="st1" d="M590.97,735.21c.47-.06.86.24,1.3.3-.21.46-.55.69-1.07.6-.1.35.37.42.34.79-.3.14-.57-.21-.87-.14-.2-.57.02-1.07.3-1.55"/><path class="st1" d="M579.3,722.3c.28.04.61-.04.78.3-.93.65-2.06.75-3.09,1.14-.01-.16-.02-.33-.03-.49h-.01c.8-.28,1.7-.28,2.34-.94h.01Z"/><path class="st1" d="M583.66,758.98c-.05-.38.14-.69.31-1,.33,0,.52-.15.51-.49.25.02.5.03.75.05,0,.16,0,.32,0,.48h0c-.99.27-.77,1.08-.79,1.78h0c-.26-.02-.52-.02-.78-.03,0-.16-.02-.32-.03-.48.19-.03.49,0,.43-.28-.04-.21-.28-.02-.42-.03"/><path class="st1" d="M588.76,718.64c-.12-.02-.28,0-.35-.08-.26-.27-.17-1.31.11-1.7.18-.05.24-.12.04-.24.1-.09.19-.17.29-.26h.12s.09.01.13,0c-.11.76-.23,1.51-.34,2.27"/><path class="st1" d="M586.46,761.08c.24.14.2.43.34.62.11.14.28.21.42.09.15-.12.02-.29-.02-.43h0c.18.01.36.02.54.03,0,.16,0,.31,0,.47-.12.23-.36.2-.56.28-.68.22-1.36.27-2.02-.06.14-.18.34-.25.56-.23.56.05.76-.25.74-.76"/><path class="st1" d="M583.36,749.33c-.09,0-.18,0-.28,0-.08,0-.16,0-.24-.02.02-.08.04-.16.06-.24.33-.63.67-1.26.51-2.02.09-.01.18-.02.27-.03.07.02.15.02.22.03.21.41-.08.83.02,1.24-.06.18-.02.41-.25.51-.3.14-.12.31-.03.47-.1.02-.2.03-.3.05"/><path class="st1" d="M594.4,729.45c-.27-.49-.69-.61-1.2-.51.28-.3.47-.69.89-.84.49.11.53.83,1.1.84,0,.09,0,.17,0,.26h0c-.09.08-.18.16-.27.23h0c-.17,0-.34,0-.51.01M594.04,728.59l.04-.06h-.06s.02.06.02.06Z"/><path class="st1" d="M568.21,730.25c-.11.25-.3.42-.56.49-.34-.48-.61-.97-.19-1.54.29,0,.59-.05.77.26-.31.25.07.53-.02.79"/><path class="st1" d="M572.09,725.72c0,.11,0,.22.01.32-.11.28-.24.54-.49.71-.83.51-1.24.5-1.78-.02.89.08,1.55-.32,2.06-1.01.07,0,.14,0,.2,0"/><path class="st1" d="M577.59,718.43c-.18.17-.36.33-.55.5-.28.02-.57.05-.75-.24.5-.33.27-.96.58-1.37.43.24.52.71.72,1.1"/><path class="st1" d="M608.61,734.52c-.1,0-.2.01-.31.02-.35-.47-1.04-.77-.77-1.54,0-.15.02-.31.03-.46.42.62.99,1.17,1.05,1.99"/><path class="st1" d="M571.37,721.18c-.26.27.03.68-.23.95q-.94-.39-.73-1.3c.25-.08.47.03.7.09.03.14.11.23.26.26h0Z"/><path class="st1" d="M579.41,758.16c-.22-.07-.41-.21-.66-.03-.36.25-.35-.08-.41-.3.13-.28.27-.55.53-.74.37.32.82.31,1.27.33-.12.34-.62.13-.72.5-.02.08-.02.16,0,.24"/><path class="st1" d="M581.12,759.96c.49.05.76.31.77.81-.11.24-.34.34-.55.45-.16-.17-.31-.35-.47-.52,0-.16,0-.32,0-.48.08-.09.17-.17.25-.26"/><path class="st1" d="M579.29,722.3c-.64.66-1.55.66-2.34.94.01-.24.02-.48.04-.71.41.19.81.35,1.04-.24.42,0,.85.01,1.27.02"/><path class="st1" d="M584,742.99c.01-.34-.17-.62-.49-.57-.49.07-.19.52-.27.79-.75-.69.12-1.14.24-1.71.1-.02.2-.03.3-.04h-.01c.03.12.09.22.23.23.03.03.07.06.1.1-.16.39.43.84-.09,1.21"/><path class="st1" d="M576.96,723.24c0,.16.02.33.03.49-.29.28-.61.52-1.04.54.01-.35-.18-.51-.51-.53.43-.4.95-.53,1.52-.5"/><path class="st1" d="M584.04,740.45c-.13-.54.25-1.02.19-1.56-.02-.17.08-.36.25-.36.22,0,.34.2.39.41-.02.64-.32,1.13-.82,1.51"/><path class="st1" d="M583.69,747.02c-.09.01-.18.02-.27.03-.05-.14-.15-.23-.3-.26-.23-.25.07-.5.01-.75.11-.26.22-.52.33-.78.07,0,.13,0,.2,0,.08.34-.11.73.22,1.02.01.17.02.34.03.51-.07.08-.15.15-.22.23"/><path class="st1" d="M581.97,753.34c-.17.05-.39.26-.43-.12-.02-.2,0-.41,0-.62h0c.18-.08.18-.17,0-.27h0c.02-.17.03-.34.04-.51.07-.09.13-.17.2-.26l-.02-.03c.21.05.42.08.53.3h-.01c-.37.27-.22.66-.26,1.01-.02.16-.04.33-.06.49"/><path class="st1" d="M568.23,731.73c.39-.02.43.41.7.55.02.27-.07.49-.31.64-.14.09-.31.15-.47.07-.25-.13-.17-.32-.1-.53.08-.24.12-.48.18-.72"/><path class="st1" d="M598.56,727.23c-.25-.33-.28-.66,0-1,.4-.15.73-.03,1.01.27,0,.17,0,.33-.01.49h0c-.11.01-.21.02-.32.03-.17,0-.35.02-.43.21-.08,0-.15,0-.23,0"/><path class="st1" d="M599.55,727c0-.16,0-.33.01-.49.47.27,1.2-.25,1.52.49-.03.21-.05.43-.29.49-.36.08-.16-.25-.22-.32-.27-.28-.67-.1-1.02-.16"/><path class="st1" d="M588.36,756.07c-.12-.4.07-.72.24-1.05.32-.12.72-.24.82.2.06.28-.06.68-.59.52-.23-.07-.27.28-.47.34"/><path class="st1" d="M583.12,746.8c.15.03.24.12.3.26.16.76-.18,1.39-.51,2.02-.02-.77.03-1.53.22-2.28"/><path class="st1" d="M575.51,730.67c.34-.19.69-.32,1.05-.05.08.47-.25.58-.59.63-.46.07-.42-.3-.46-.58"/><path class="st1" d="M592.84,729.63c.09.26.19.52.28.78-.23.11-.43.26-.49.52-.09,0-.19,0-.28.01-.08,0-.15.02-.21.07-.03-.04-.05-.08-.06-.14,0-.58.31-.96.76-1.26"/><path class="st1" d="M578.02,722.27c-.22.6-.63.43-1.04.25-.05-.05-.11-.09-.17-.12.01-.06,0-.12-.03-.17l.5-.45c.17.07.34.14.51.21h0c0,.15.07.24.22.28h0Z"/><path class="st1" d="M583.06,737.33q.57.48-.05,1.07c-.19.13-.22.34-.25.55-.33-.62,0-1.12.3-1.62"/><path class="st1" d="M567.82,724.1c.05-.22-.08-.55.24-.61.29-.06.23.27.32.43.14.25.3.49.45.73h0c-.18.01-.36.02-.54.03h0c-.02-.15-.11-.24-.26-.27-.13-.06-.19-.16-.2-.29"/><path class="st1" d="M574.31,716.88c0,.25-.02.5-.02.75-.33,0-.65-.27-.99-.02-.06-.8.48-.75,1.01-.73"/><path class="st1" d="M569.11,721.82c-.21-.22-.95-.11-.47-.76.14-.01.27-.02.41-.04.24.05.47.1.77.16-.11.42-.84.07-.71.63"/><path class="st1" d="M583.29,739.92c.25.18.51.35.76.53.07.17.15.33.22.5-.38.11-.67-.12-.99-.27l-.03.02c-.07-.1-.14-.19-.21-.29-.04-.16-.08-.33-.12-.49.06,0,.12.01.18.01,0,0,.09-.01.09-.01h.09Z"/><path class="st1" d="M584.39,761.03c.29.38.87-.2,1.13.4-.29.13-.58.26-.86.38-.09-.08-.19-.16-.28-.24-.06-.1-.13-.2-.19-.29-.01-.08,0-.16,0-.23h.1s.1-.02.1-.02Z"/><path class="st1" d="M579.75,754.63c-.15-.07-.4-.12-.42-.22-.05-.33.26-.4.48-.45.37-.1.38.22.43.46-.11.19-.29.23-.5.21"/><path class="st1" d="M586.04,728.79c-.32-.43.3-.85.03-1.28.12-.21.32-.26.55-.24-.05.56-.06,1.13-.57,1.52"/><path class="st1" d="M571.56,731.09c-.3-.18-.32-.48-.3-.78.01-.16,0-.38.22-.38.29-.01.25.28.34.45-.02.26,0,.54-.27.71"/><path class="st1" d="M583.28,740.67c.31.15.6.38.99.27-.01.29.03.59-.18.84-.03-.03-.07-.06-.1-.09-.02-.14-.09-.23-.23-.24h.01c-.16-.3-.33-.31-.51,0-.51-.27.02-.51.02-.76"/><path class="st1" d="M597.54,751.39c.15-.06.3-.15.46-.19.24-.05.54-.15.68.11.15.31-.28.35-.36.58-.27-.16-.62-.19-.78-.51"/><path class="st1" d="M583.66,749.28c-.09-.16-.27-.34.03-.47.23-.11.19-.33.25-.51.26.25.34.67.71.82-.12.2-.34.21-.54.26-.15-.03-.3-.06-.45-.09"/><path class="st1" d="M593.18,729.16c.21.04.61-.13.53.28-.12.61-.52.37-.86.17.03-.21.12-.38.33-.45"/><path class="st1" d="M576.35,716.89c-.67-.08-1.35.18-2.02-.02.68-.43,1.35-.41,2.02.02"/><path class="st1" d="M584.39,761.03l-.1.02h-.1c-.14-.05-.22-.15-.25-.29.38-.41.28-.65-.26-.74,0-.09,0-.17,0-.26.26,0,.52.01.78.02-.02.42-.04.83-.06,1.25"/><path class="st1" d="M585.82,727.5c-.04.2-.07.4-.27.52,0-.09,0-.18-.01-.26,0-.43,0-.86,0-1.29,0-.08.01-.16.03-.24.08,0,.17,0,.25,0h0c.28.42-.1.85,0,1.27"/><path class="st1" d="M585.18,720.36c-.3.68-.93.44-1.44.52.37-.47.97-.33,1.44-.52"/><path class="st1" d="M582.76,738.95c.04-.2.06-.41.25-.54.09.24.57.27.41.62-.12.26-.41.16-.64.12-.03-.06-.04-.13-.03-.2"/><path class="st1" d="M583.46,745.27c-.11.26-.22.52-.33.78-.34-.31.06-.74-.18-1.06.21.03.4.08.51.27"/><path class="st1" d="M586.77,726.96c-.22,0-.42-.03-.42-.31,0-.32.21-.41.49-.4-.02.24-.05.47-.07.71"/><path class="st1" d="M585.42,733.84c-.61-.43-.26-.84.03-1.26,0,.08.01.16.03.23,0,.1.01.19.02.29-.03.24-.05.49-.08.73"/><path class="st1" d="M585.55,726.47c0,.43,0,.86,0,1.29-.08-.02-.17-.02-.25,0,.04-.44-.13-.92.26-1.28"/><path class="st1" d="M573.98,720.93c.04.18.27.38-.05.52-.25-.21-.48-.42-.48-.78.18.09.35.17.53.26"/><path class="st1" d="M580.87,760.7c.16.17.31.35.47.52-.1.19-.27.27-.46.32.06-.28-.3-.56,0-.84"/><path class="st1" d="M584.11,749.37c.2-.05.41-.06.54-.26.08-.03.15-.06.22-.11,0,.29,0,.58,0,.86h0c-.07,0-.14.01-.21.01-.18-.17-.37-.34-.55-.51"/><path class="st1" d="M583.68,760.02c.54.09.64.33.26.74-.18-.22-.34-.44-.26-.74"/><path class="st1" d="M583.88,746.29c-.32-.29-.14-.68-.22-1.02.08-.09.16-.17.24-.26.05.43.09.85-.02,1.28"/><path class="st1" d="M586.28,757.5c-.24.32-.5.36-.77.03.26-.03.5-.25.77-.03"/><path class="st1" d="M583.66,758.98c.15,0,.38-.18.42.03.05.28-.24.25-.43.28-.04-.03-.1-.05-.15-.06.05-.08.11-.16.16-.24"/><path class="st1" d="M585.71,732.07c-.4-.26-.17-.67-.23-1.01.1,0,.19,0,.28,0-.02.34-.04.67-.06,1.01"/><path class="st1" d="M588.71,720.21c-.27.42-.5.02-.75-.03.07-.3.3-.26.52-.25.08.1.15.19.23.29"/><path class="st1" d="M571.8,728.26c-.07-.26-.39-.52,0-.77.11.25.26.48.24.78-.08,0-.16,0-.25,0"/><path class="st1" d="M582.03,752.86c.03-.35-.11-.74.26-1-.08.34.09.74-.26,1"/><path class="st1" d="M586,730.04c-.38-.33-.32-.65,0-.97,0,.32,0,.65,0,.97"/><path class="st1" d="M596.27,725.9c-.38.01-.6-.19-.74-.52.37,0,.57.23.74.52"/><path class="st1" d="M585.77,731.06c-.1,0-.19,0-.28,0,0-.07,0-.15,0-.22.08-.09.17-.19.25-.28,0,0,.05-.04.05-.04.17.19.24.37-.02.54"/><path class="st1" d="M587.26,757.79c-.29,0-.59.04-.77-.28.3-.03.62-.1.77.28"/><path class="st1" d="M583.05,752.37c0,.2-.04.38-.23.5-.03-.14-.07-.28-.1-.42.08-.12.14-.34.32-.08"/><path class="st1" d="M578.06,721.3c-.01-.3-.07-.61.25-.8,0,.29-.01.58-.25.8"/><path class="st1" d="M573.38,727.99c.08.1.15.2.23.31-.03.17-.05.34-.08.51-.27-.23-.21-.53-.16-.82"/><path class="st1" d="M606.09,730.18c-.32-.03-.53-.16-.49-.53.34.02.45.24.49.53"/><path class="st1" d="M582.85,749.31c.08.02.16.02.24.02-.09.08-.17.16-.25.25-.03-.06-.06-.12-.07-.19,0-.02.05-.05.08-.08"/><path class="st1" d="M580.58,750.01c-.22.02-.42-.02-.54-.23.22,0,.41.04.54.23"/><path class="st1" d="M590.74,737.26c.21.13.24.33.18.55-.25-.12-.22-.33-.18-.55"/><path class="st1" d="M584.81,737.42c-.22-.19-.21-.37.03-.54-.01.18-.02.36-.03.54"/><path class="st1" d="M583.26,741.44c.18-.3.35-.29.51.02-.1.01-.2.03-.3.04-.07-.02-.14-.04-.21-.06"/><path class="st1" d="M577.93,754.57c0,.07,0,.15,0,.22-.22.04-.4-.02-.53-.21l.07-.08c.15.02.3.05.45.07"/><path class="st1" d="M585.9,756.8c.22,0,.44,0,.66,0-.22.25-.44.18-.66,0"/><path class="st1" d="M586.13,722.92c.01.22-.04.4-.24.51,0-.21.05-.39.24-.51"/><path class="st1" d="M583.63,720.95c-.17.05-.33.1-.5.15.11-.22.29-.23.5-.15"/><path class="st1" d="M567.73,730.96c.1.04.2.07.31.11-.04.06-.08.11-.12.17-.13-.05-.2-.14-.19-.28"/><path class="st1" d="M568.28,724.67c.18,0,.36-.02.54-.02,0,.08,0,.16-.01.24-.21,0-.41,0-.52-.22"/><path class="st1" d="M572.1,724.97c.36.16.27.33,0,.49,0-.16,0-.33,0-.49"/><path class="st1" d="M605.6,729.64c-.25.05-.42-.04-.48-.3.21.02.41.06.48.3"/><path class="st1" d="M585.29,727.75c.08-.01.17,0,.25,0,0,.09,0,.18.01.26-.09.08-.18.15-.27.23,0-.17,0-.33.01-.5"/><path class="st1" d="M586.55,756.8c.08-.09.16-.19.24-.28-.01.09-.02.19-.03.28l-.1.02-.1-.02Z"/><path class="st1" d="M586.76,756.79c.12,0,.23,0,.35.01-.12.13-.24.2-.35-.01"/><path class="st1" d="M584.19,761.28c.06.1.13.2.19.29-.14-.05-.22-.14-.19-.29"/><path class="st1" d="M587.73,761.39c.08-.09.16-.19.24-.28,0,.17-.09.25-.24.28"/><path class="st1" d="M572.09,725.72c-.07,0-.14,0-.2,0,.07-.09.15-.17.22-.25,0,.08-.01.17-.02.25"/><path class="st1" d="M576.97,726.11c0-.1-.02-.21-.03-.31.19.09.17.2.03.31"/><path class="st1" d="M595,726.39c.15.02.25.07.26.24-.15,0-.24-.09-.26-.24"/><path class="st1" d="M578.02,722.27c-.15-.03-.23-.12-.22-.28.13.05.2.14.22.28"/><path class="st1" d="M575.98,722.51c.06-.16.14-.21.25-.03-.08.01-.17.02-.25.03"/><path class="st1" d="M576.78,722.23c.04.05.05.11.03.17-.11.02-.21.03-.32.05.1-.07.19-.15.29-.22"/><path class="st1" d="M568.02,724.39c.15.04.24.13.26.28-.17-.02-.23-.13-.26-.28"/><path class="st1" d="M576.63,730.47c0-.18.09-.29.26-.31-.09.1-.18.21-.26.31"/><path class="st1" d="M586.96,719.9c-.04.13-.14.21-.27.24.09-.08.18-.16.27-.24"/><path class="st1" d="M583.89,721.59c.09-.07.17-.15.26-.22-.04.13-.13.2-.26.22"/><path class="st1" d="M584.68,721.52c.08-.04.15-.09.23-.13-.04.1-.09.19-.23.13"/><path class="st1" d="M588.71,721.46c.09.08.18.16.26.24-.14-.02-.23-.09-.26-.24"/><path class="st1" d="M577.8,721.83c0-.14.07-.25.19-.31-.06.1-.13.21-.19.31"/><path class="st1" d="M571.37,721.18c-.15-.03-.23-.12-.26-.26.16.01.25.1.26.26"/><path class="st1" d="M583.69,747.02c.07-.08.14-.15.22-.23,0,.09,0,.17,0,.26-.08,0-.15-.01-.22-.03"/><path class="st1" d="M592.44,744.91s.06.09.08.15c0,.02-.02.05-.03.08-.06-.07-.08-.14-.05-.22"/><path class="st1" d="M581.83,750.61c-.05.14-.14.21-.28.2.09-.07.19-.13.28-.2"/><path class="st1" d="M585.5,733.11c0-.1-.01-.19-.02-.29.03.07.07.13.09.2,0,.02-.05.06-.07.09"/><path class="st1" d="M583.04,740.4c.07.1.14.19.21.29-.14-.05-.21-.14-.21-.29"/><path class="st1" d="M607.54,732.99c-.27.78.42,1.07.77,1.54-.2.03-.55.15-.45.29.47.62-.01,1.41.42,2-.41.82.15,1.18.72,1.54h0c-.17,0-.33,0-.5,0-.32.08-.9-.02-.4.61.13.16.2.36.32.54.31.46.64,0,.6-.12-.23-.73.29-.67.7-.74-.08.16-.15.32-.23.48.08.09.16.18.24.27,0,.08,0,.17.02.25-.88.4-.99.56-.56,1.21.21.33.3.68.44,1.02-.62.16-.54,1.04-1.14,1.16-.29.06-.37.31-.6.39h0c-.24-.38-.06-.75.09-1.08.16-.35.13-.64-.04-.95.08-.08.17-.17.25-.25q.49-.35.2-.95c-.08.36-.14.66-.2.95-.08,0-.17,0-.25,0,0-.08,0-.16,0-.25-.08-.18-.16-.18-.25-.01-.08,0-.17,0-.25,0-.18.08-.18.16,0,.25,0,.08,0,.17,0,.25-.32-.04-.7.07-.83-.37.12-.33.67-.21.67-.63-.1-.27-.57-.3-.42-.65.33-.17.51.32.81.12-.16-.48-.44-.67-.87-.67-.12,0-.21-.15-.17-.28.03-.13.15-.21.29-.2.18,0,.41.17.47-.18-.18-.29-.52-.26-.77-.37-.21-.09-.53.08-.46.27.35.98-.52,1.2-.98,1.81-.27-.63-.25-1.27-.79-1.62-.03-.02.05-.23.09-.35.08,0,.16,0,.25,0,.16,0,.34,0,.39-.2.02-.06-.03-.17-.09-.2-.15-.09-.33-.1-.44.06-.07.09-.07.23-.11.34-.09-.08-.17-.17-.26-.25,0-.21-.03-.4-.25-.5.37-.59-.07-1.05-.24-1.56,0-.08.02-.16.03-.23.29-.02.51.16.75.26.03.32.15.59.52.45.28-.1.15-.31,0-.46-.03-.26-.14-.47-.44-.49-.51-.02-.64-.41-.82-.77.25,0,.51-.01.76-.02-.04.15-.18.3-.05.43.06.06.24.06.33.02.17-.08.2-.25.09-.39-.1-.12-.24-.2-.36-.3l-.24-.27c.25-.79.55-1.54,1.3-2h0c0,.09,0,.18,0,.26v.49c-.81-.11-.02.92-.69.97-.13,0,.02.29.13.41.29.31.35.72.52,1.14.22-.25.41-.46.59-.68.46-.57.41-1.08-.17-1.55-.12-.1-.26-.19-.39-.29.16,0,.33,0,.49.01.5,0,1.01-.44,1.5.04M606.5,736.03c.06.09-.12.36.17.26.06-.02-.07-.2-.18-.25-.08-.08-.16-.19-.26-.22-.13-.04-.34-.1-.33.16,0,.12.13.19.26.17.11-.02.22-.07.33-.11M606.77,735.52c-.06-.15-.13-.3-.31-.34-.02,0-.11.11-.1.14.07.18.24.18.4.2.23.24.46.5.89.39-.22-.44-.57-.37-.88-.39M607.12,737.64c-.21-.6-.74-1.08-1.12-1.02-.39.06-.52.58-.34,1.3.31-.97.5-1.01,1.45-.29M607.06,734.35c-.06.03-.16.05-.17.1-.02.05.02.17.07.19.12.05.22,0,.23-.14,0-.05-.08-.1-.12-.15M605.84,739.1c-.03-.06-.04-.16-.09-.19-.05-.02-.17.01-.19.06-.07.11-.02.22.12.23.05,0,.11-.07.17-.11"/><path class="st1" d="M602.46,734.68c.44-.02.82.07,1.01.53-.09,0-.18,0-.27,0-.67.23-.8,1.1-1.54,1.24-.14-.06-.34-.07-.43-.18-.34-.39-.46-.08-.6.17-.08,0-.16-.01-.24-.01-.18-.1-.37-.19-.55-.3-.22-.13-.46-.3-.3-.58.12-.21.38-.14.57-.03.77.46.62-.31.82-.61q0-.94-.75-.52h0c0-.31-.81-.93.33-.79.49.06.47-.4.55-.69.1-.38-.18-.49-.5-.55-.14-.03-.49.14-.33-.27.25,0,.5,0,.78.01q-.44-.49.02-.99c.25-.25.5-.51.75-.76.28-.18.26-.47.27-.74.02-.34.19-.5.52-.51h0c-.04.19-.32.53.21.4.71-.16.66-.04.39.58-.32.71-.88,1.07-1.41,1.52.01.33-.32.68.07,1,.31.26.39.09.42-.2.3.27.5.53.1.92-.12.11-.08.39-.11.59-.14,0-.44-.13-.39,0,.11.31.28.63.62.78"/><path class="st1" d="M605.56,732.19c-.3-.46-.83-.46-1.37-.64.43-.33.8-.54,1.22-.14.22.21.58.43.16.78h0Z"/><path class="st1" d="M602.46,734.68c-.35-.15-.52-.48-.62-.78-.04-.13.25,0,.39,0,.08.01.16.02.24.02.2.02.4.06.5.27h0c-.09.08-.18.16-.27.24-.08.09-.16.17-.25.26"/><path class="st1" d="M602.24,732.39c-.03.3-.11.46-.42.21-.39-.32-.06-.66-.07-1,.3.18.34.52.49.79"/><path class="st1" d="M604.25,734.19c.08.09.16.18.24.27,0,.08,0,.16,0,.24-.25,0-.51.01-.76.02-.14-.48.35-.35.52-.53"/><path class="st1" d="M603.2,735.2c.09,0,.18,0,.26,0,.21.11.24.31.25.52-.01.08-.02.15-.03.23-.53-.01-.47-.41-.49-.76"/><path class="st1" d="M604.98,735.98c.16.16.28.36,0,.46-.37.13-.49-.13-.52-.45h0c.08,0,.16,0,.24-.01.09,0,.19,0,.28,0"/><path class="st1" d="M602.97,734.18c-.1-.21-.3-.24-.5-.27.1-.15.25-.23.43-.22.15,0,.38-.07.4.16.02.18-.17.27-.32.33"/><path class="st1" d="M606.03,732.96c-.16,0-.33,0-.49-.01h.01v-.48c.35-.02.51.15.48.5"/><path class="st1" d="M604.71,735.98c-.08,0-.16.01-.24.02.07-.13.15-.17.24-.02"/><path class="st1" d="M602.71,734.42c.09-.08.18-.16.26-.24-.09.08-.18.16-.26.24"/><path class="st1" d="M591.41,740.83c.37-.04.7.09,1.01.27h0c.1.54.34.68.77.27.17,0,.35,0,.52,0,.24.1.46.97.74.03h0c.32.15.57.6,1.01.27,0,.09,0,.17,0,.26.08.19.17.19.26,0h0c.18.05.34.28.54.17.18-.1,0-.28-.02-.42h0c.28-.37.81-.63.51-1.24.05-.25.1-.5.44-.48.14,0,.28.12.24.22-.26.62.26,1.42-.55,1.96.54-.02.74.44,1.12.6.09.25.25.43.51.52.49.03.73.3.74.78-.11.24-.3.46-.27.75h0c-.67.25-.95,1.01-1.62,1.26,0,0,.05.15.08.23-.31.52-.93.68-1.3,1.15-.06.07-.22-.06-.28-.18h0c.45-.27.17-.77.39-1.03-.29-.52-.97.69-1.09-.4-.03-.25-.51.08-.78.15,0-.16,0-.33,0-.49,0-.16,0-.38-.18-.41-.29-.07-.09.36-.33.39-.09,0-.17,0-.26,0-.17-.09-.33-.18-.5-.27h0c0-.09,0-.17,0-.26h0c.4-.22.83-.26,1.27-.24.16.01.51-.25.42.12-.14.54-.05.73.49.59.34-.09.38.27.61.34.28-.16.27-.32,0-.48-.1-.13-.29-.35-.27-.38.7-.81-.12-1.19-.46-1.7.29-.02.58-.1.86-.06.21.03.44.36.57-.05.11-.34-.3-.53-.42-.48-.68.26-1.2-.37-1.87-.33.17.48.76.46.87.92-.47-.02-.85.01-.61.67.05.15-.11.38-.18.57-.67.18-.9-.21-1.01-.77.12,0,.24,0,.35,0,.16,0,.36-.05.29-.24-.08-.2-.27-.05-.39,0-.1.05-.17.16-.25.24-.71.16-.34.62-.28,1-.52-.43-.7-1.13-.29-1.66.24-.32.36-.7.6-1.08-.57.45-1.12.93-1.76.19.36-.04.57-.19.3-.55-.15-.19-.35-.34-.53-.51,0-.08-.01-.15-.02-.23M597.58,743.55c.15-.17,0-.3-.06-.44-.07-.14-.14-.36-.33-.28-.27.13-.12.34,0,.49.1.11.19.26.38.22M598.75,743.87c-.15-.14-.31-.1-.48-.08-.04,0-.1.07-.09.08.09.19.27.14.43.13.05,0,.1-.08.14-.12M596.6,744.76c-.03-.07-.04-.16-.09-.19-.05-.02-.13.02-.2.04.03.07.05.14.1.2.07.07.14.05.19-.04"/><path class="st1" d="M597.36,748.57c-.2-1.01-.47-.01-.73-.03-.12-.98.63-1.32,1.27-1.74.16.09.33.17.49.26.09.09.18.19.27.28,0,.08,0,.16,0,.24h-.26c-.08-.02-.16-.02-.24,0-.35,0-.8-.1-.5.53-.02.07-.02.14-.01.21,0,.09-.01.18-.02.28-.08,0-.17,0-.25,0"/><path class="st1" d="M597.43,746.28c-.03-.08-.08-.23-.08-.23.67-.26.95-1.01,1.62-1.26,0,.34-.02.67-.03,1.01-.14-.02-.44-.16-.41-.04.21.71-.47.3-.61.54-.08,0-.16,0-.24,0-.08,0-.16,0-.24-.01"/><path class="st1" d="M597.91,746.29c.14-.24.83.17.61-.54-.04-.12.26.02.41.04h0c-.01.33.3.76-.33.86-.09.01-.15.27-.22.41-.16-.09-.33-.17-.49-.26,0-.08,0-.16,0-.24,0-.09,0-.18.01-.27"/><path class="st1" d="M597.36,748.57c.08.01.17.01.25,0,0,.08,0,.16-.01.24-.33.26-.33.51,0,.77-.02.35.39.82-.26,1,0-.08,0-.16,0-.25.01-.22-.05-.4-.26-.51.1-.42-.13-.92.29-1.27"/><path class="st1" d="M593.86,745.45c.24-.03.03-.45.33-.39.17.04.17.25.18.41,0,.16,0,.33,0,.49-.48.13-.33-.36-.51-.52"/><path class="st1" d="M593.1,745.19c.16.09.33.18.5.27-.11.2-.3.23-.5.25v-.52"/><path class="st1" d="M597.07,749.85c.21.11.27.29.26.51-.24-.1-.41-.27-.5-.52h0c.08,0,.16,0,.24.01"/><path class="st1" d="M595.85,747.25c-.12-.05-.22-.23-.17-.25.29-.1.11.16.17.26,0,0,0,0,0,0"/><path class="st1" d="M597.91,746.29c0,.09,0,.18-.01.27-.08-.09-.15-.18-.23-.26.08,0,.16,0,.24,0"/><path class="st1" d="M596.83,749.83s-.1-.05-.1-.06c.02-.08.06-.06.1.06Z"/><path class="st1" d="M584.88,749.86c.22.08.43.21.58-.11.13-.27.39-.38.69-.37.18.31.51.24.79.3-.03.06-.06.12-.09.17-.54,0-.8.23-.67.79,0,.1-.02.19-.03.29-.16.43-.2.92-.55,1.27-.09,0-.18-.01-.27-.02-.08-.25-.24-.43-.49-.53-.21-.6.09-1.18.03-1.78h0Z"/><path class="st1" d="M585.6,752.2c.36-.35.4-.83.55-1.27.32.26.17.58.14.91-.04.59.15.69.77.59.31-.05.66.13.75.38.12.35-.19.35-.47.32-.21-.03-.24.17-.26.34-.23.16-.38.54-.76.24h0c0-.08,0-.16.01-.24.03-.72-.46-.81-1-.81.09-.15.17-.31.26-.46"/><path class="st1" d="M586.33,753.71c.38.3.53-.08.76-.24,0,.08,0,.16,0,.23.08.35.16.7.23,1.05-.43-.25-1-.37-1-1.04"/><path class="st1" d="M586.18,750.64c-.13-.56.13-.79.67-.79.1.54-.28.67-.67.79"/><path class="st1" d="M588.34,751.09c.14.57,0,.87-.61.97.05-.45.32-.67.61-.97"/><path class="st1" d="M587.32,750.88c0,.1-.05.15-.15.11-.04-.01-.07-.05-.09-.08-.07-.1-.04-.18.07-.17.06,0,.11.09.17.14"/><path class="st1" d="M587.73,748.89c-.05-.07-.05-.15-.01-.23.03.06.07.11.09.17,0,.01-.05.04-.08.07"/><path class="st1" d="M598.94,745.8c0-.34.02-.67.03-1.01h0c.57-.09.66-.34.27-.76-.01-.48-.25-.75-.74-.78,0-.08.02-.17.03-.25.32-.01.48-.18.49-.5.76,1.14,1.93,1.29,3.47,1.37-.58-.26-.1-1.22-1.06-.8-.37-.68-.95-.79-1.67-.66-.15.02,0-.27.03-.41h0c.29-.14.35-.45.49-.69.08-.13.16-.19.28-.06.07.28-.02.54.52.56.63.02,1.12-.68,1.77-.26.15.23.35.33.58.13.04-.03,0-.25-.07-.33-.29-.32-.31.21-.51.19-.34-.39-.6-.76-.17-1.28.12-.15-.15-.23-.31-.25.09-.17.17-.33.26-.5.14.02.3.18.4,0,.06-.11-.07-.22-.2-.23-.23-.02-.47-.03-.71-.04.61-.37,1.01-.81.47-1.54-.03-.04.05-.15.09-.23.11-.04.21-.09.32-.13-.15-.2-.37-.36-.59-.3-.21.06-.01.27-.01.41-.29.19-.23.49-.25.76h0c-.59-.01-1.18-.03-1.78-.04-.75-.62.24-.58.33-.88-.15-.25-.48-.04-.64-.26-.02-.28.28-.4.34-.64.08,0,.16,0,.24.02.4.34.63.76.63,1.29,0,.17.11.21.24.21.18,0,.36-.09.34-.28-.03-.41-.12-.81-.18-1.21.73-.14.87-1.02,1.54-1.24.02.34-.05.74.49.76.17.51.61.97.24,1.56-.59-.14-.61.22-.61.68.33-.07.59-.12.86-.18.09.09.17.17.26.25h0c-.03.12-.12.32-.09.34.55.35.52,1,.79,1.62.46-.61,1.33-.83.98-1.81-.07-.19.25-.36.46-.27.26.11.6.08.77.37-.06.35-.29.18-.47.18-.14,0-.26.07-.29.2-.03.13.05.28.18.28.43,0,.71.19.87.67-.3.2-.48-.29-.81-.12-.15.35.32.38.42.65,0,.42-.55.3-.67.63.14.43.52.33.84.37h0c0,.08,0,.17,0,.25-.31.24-.84.45-.9.74-.14.76-.63.74-1.16.75-.52-.57-.68-.58-.91-.04q-.27.62.64.8c-.09.08-.18.17-.27.25-.48.32-.9.67-.61,1.34.01.03-.11.11-.17.16-.38-.39-.8-.29-1.23-.02.41,0,.82.02,1.23.02-.11.26-.23.52.23.51,0,.08,0,.17-.02.25-.08.09-.16.17-.23.25-.17-.09-.34-.18-.5-.26-.06-.15-.13-.29-.3-.33-.02,0-.11.11-.09.14.07.18.24.17.4.2-.04,1.01-.26,1.27-1.3,1.5-.1-.26-.24-.48-.11-.81.19-.5-.19-.25-.38-.22,0-.16,0-.33-.18-.41-.03-.01-.15.07-.15.09.03.18.18.26.33.32-.11.22-.05.47-.09.69-.11.73.22.5.58.33-.06.14-.09.33-.2.42-.5.45-.51.44.17.85-.12.78.57.93.99,1.29-.05.06-.1.13-.15.19-.12.13-.45.26-.18.44.27.18.58-.05.69-.29.12-.26-.18-.29-.37-.33.01-.21.06-.4.27-.51.28.36.5.24.8-.02.27-.23.46-.76.99-.45,0,.08,0,.16,0,.24-.06.5.35.16.51.28,0,.08,0,.16,0,.24-.76.03-1.47.15-1.81.97-.03.06-.07.12-.1.19.19.1.29,0,.36-.16.28-.36.64-.35,1.02-.24.36.04.69-.05,1-.24,0,.17.01.34.02.51h-.03c-.27,0-.56-.05-.74.23-.17.09-.35.17-.52.26-.07-.09.12-.37-.18-.26-.06.02.07.2.18.26-.41.26-.92.48-.37,1.07,0,0-.09.11-.15.17-.16-.2-.34-.22-.51-.02-.14.18-.32.26-.53.28h0c-.17-.28-.34-.28-.52,0h0c-.23-.07-.6-.12-.28-.44.34-.34.78-.57,1.21-.88-.36-.28-.72-.3-.95-.09-.17.15-.23.49-.52.28-.27-.19,0-.45.04-.67.01-.08.02-.17.04-.25-.03-.41-.17-.77-.5-1.03-.01-.2.07-.42-.17-.62-.32.25-.55.76-1.1.59h0c.13-.26.21-.52-.25-.51.43-.51-.09-.85-.23-1.26.9-.02.62-.87.94-1.3-.55-.26-1.03-.23-1.43.26-.24-.06-.56-.11-.28-.45.29-.34.62-.67,1.07-.81.04.13.08.15.1.06,0-.01-.07-.04-.1-.06.03-.18.35-.2.27-.48-.6.07-1.2.13-1.79.2h0ZM603.11,740.54s.06-.02.08-.04c.02-.01.01-.04.02-.06-.03.03-.07.07-.11.1-.13.04-.15.08-.06.1.01,0,.04-.07.06-.1M601.74,745.85c.12-.04.14-.08.06-.1-.01,0-.04.07-.06.1-.03.01-.06.02-.09.04-.01.01-.01.04-.02.06.03-.03.07-.07.1-.1M603.63,739.79c.04.13.08.15.1.06,0-.01-.07-.04-.1-.06-.07-.09.13-.38-.18-.27-.06.02.07.21.18.27M599.47,745.26c.55-.08,1.14.26,1.7-.12-.22-.35-.41-.64-.56-.88-.61.1-.71.71-1.14,1M603.45,744.69c0-.18-.08-.3-.22-.25-.19.06-.43.15-.52.3-.08.14.13.29.31.3.25.01.37-.16.43-.35M603.46,736.84s.05-.07.05-.1c-.04-.2-.11-.4-.33-.47-.07-.02-.2-.04-.23,0-.2.27.19.27.23.44.03.11.14.18.28.13M602.12,744.63c-.08-.08-.16-.18-.25-.23-.04-.02-.19.03-.19.06-.01.18.11.27.28.3.04,0,.1-.07.17-.13M604.03,740.55c-.04-.05-.07-.15-.11-.15-.06-.01-.17.03-.18.08-.05.12.02.22.16.21.05,0,.09-.09.14-.14M605.81,742.22l-.1.21c.07.03.16.1.21.08.05-.02.07-.13.1-.2-.07-.03-.14-.06-.21-.09M602.65,742.15s-.07-.04-.09-.03c-.11.03-.12.08-.02.13.02.01.07,0,.1-.02.02-.01,0-.05.01-.08M603.4,742.49s0-.07-.02-.08c-.03-.02-.08-.03-.1-.02-.09.05-.08.11.02.13.03,0,.06-.02.09-.03M602.61,747.3c-.09.05-.1.12-.02.19.03-.03.07-.06.07-.09,0-.03-.03-.07-.05-.1M604.22,739.19c.01-.1-.04-.12-.13-.06,0,0,.01.08.02.08.03,0,.07-.01.11-.02"/><path class="st1" d="M599.68,747.34c.4-.48.88-.51,1.43-.26-.32.43-.04,1.29-.94,1.3-.09-.09-.17-.18-.26-.27-.63.27-.49-.2-.49-.52.09-.08.17-.17.26-.25M600.28,747.72c-.03-.06-.06-.14-.1-.19-.07-.07-.16-.05-.17.04-.01.06.03.16.08.18.04.02.13-.02.19-.04"/><path class="st1" d="M599.42,747.59c0,.33-.14.79.49.52.01.29-.16.51-.27.75h0c-.18,0-.37,0-.55-.01.06-.28-.1-.51-.21-.75-.08-.17-.16-.35-.24-.52,0-.08,0-.16,0-.24.25.08.5.17.76.25"/><path class="st1" d="M600.64,750.15c.55.17.77-.34,1.1-.59.24.2.16.42.17.62,0,0,0,0,0,0-.22.1-.25.3-.26.51h0c-.17,0-.33,0-.5,0-.25-.1-.42-.29-.51-.54"/><path class="st1" d="M598.89,748.1c.11.24.27.47.21.75-.35.4-.75.54-1.23.23h0c0-.08,0-.17,0-.25.65.19.73-.43,1.03-.73"/><path class="st1" d="M599.86,751.67c.22-.31.55-.25.9-.3-.19.54-.62.19-.9.3h0Z"/><path class="st1" d="M597.6,749.59c-.32-.26-.32-.52,0-.77,0,0,.01.01.01.01.08.09.17.17.25.26h0c-.09.16-.18.33-.27.5"/><path class="st1" d="M599.13,750.65c.1.02.26,0,.23.15,0,.05-.21.07-.33.07-.07,0-.14-.06-.21-.1.07-.13.19-.12.31-.13"/><path class="st1" d="M599.65,748.87c.14.04.38-.04.32.25,0,.03-.05.08-.09.08-.29.05-.2-.19-.23-.33Z"/><path class="st1" d="M600.4,749.65c.45,0,.37.24.25.51-.21-.11-.25-.3-.25-.51"/><path class="st1" d="M601.38,751.98c.2.1.25.27.2.46-.04.16-.15.12-.23.02.01-.16.02-.32.04-.48"/><path class="st1" d="M600.24,750.55c.02.07.08.16.05.21-.03.05-.13.1-.2.09-.11-.01-.13-.1-.06-.18.05-.05.13-.08.2-.12"/><path class="st1" d="M601.15,750.69c.17,0,.33,0,.5,0-.03.14.02.35-.2.33-.16-.01-.24-.18-.29-.33"/><path class="st1" d="M601.64,750.69c.01-.21.05-.41.26-.51,0,.21-.05.4-.26.51"/><path class="st1" d="M599.39,751.22s.03.08.02.09c-.03.02-.07.02-.11.03,0-.03-.03-.08-.02-.09.03-.02.07-.02.11-.03"/><path class="st1" d="M601.89,751.45c-.11.21-.3.24-.51.25.11-.21.3-.25.51-.25"/><path class="st1" d="M602.15,751.21s-.11-.05-.1-.06c.02-.09.06-.07.1.06Z"/><path class="st1" d="M605.35,743.13c.54-.01,1.02.01,1.16-.75.05-.29.59-.49.9-.74.18.38.3.66-.05,1.1-.33.41-.04.75.53.69h0c-.47.16-.78.56-1.17.84-.46.32-.53.73-.14,1.17-.11.2-.3.24-.51.24-.04-.12-.09-.15-.11-.06,0,.01.07.04.1.06.15.12.3.25.46.35.09.05.25.11.32.06.19-.12.03-.28-.03-.41-.05-.1-.15-.17-.23-.26.37-.98.37-1,1.4-.92.28.02.43.04.56-.28.22-.55.56-.29.86-.03-.08,0-.16,0-.25,0-.08.09-.17.17-.25.25,0,.17-.02.33-.02.5-.08.09-.17.17-.25.25-.08,0-.17,0-.25,0-.09,0-.17,0-.26-.01q-.81-.34-.73.41c.26-.12.39-.46.73-.41.08.09.17.17.25.26.04.12-.01.41.21.27.25-.16.48-.42.67-.04.13.26-.32.31-.39.54-.29-.03-.59-.02-.88-.08-.57-.13-.71.2-.83.85.9-1.14,1.22.62,2,.15.06-.35-.19-.61-.29-.91.45-.04.56.57,1.01.53h0c.1.48-.25.72-.53,1.01-.41.25-.08.51-.01.76h0c-.09.09-.17.17-.26.25-.08,0-.16,0-.24,0-.09-.09-.18-.17-.26-.26h0c.05-.19.27-.36.14-.56-.14-.23-.35-.06-.53-.03-.44.08-.61.22-.47.74.09.33-.26.09-.41.08h0c-.15-.27-.04-.55-.03-.84.03-.6-.51-.83-.93-1.01-.35-.15-1.02-.07-1.03.33-.02.78-.53.31-.79.45-.08-.17-.16-.35-.24-.53.1-.07.39.14.28-.17-.02-.06-.21.06-.27.18-.45.01-.4-.22-.26-.51.09,0,.18,0,.27-.01.5.05.37-.22.25-.49.09-.68.19-1.35.28-2.03.09-.08.18-.17.27-.25h0c.27.08.33.71.74.34.35-.32-.24-.4-.27-.66-.02-.15-.14-.29-.21-.43h0ZM607.73,747.59s0,.07.02.08c.03.02.08.03.1.02.08-.05.07-.11-.02-.13-.02,0-.06.02-.09.03"/><path class="st1" d="M609.15,744.22c.08,0,.16,0,.25,0,.13.08.28.18.14.33-.12.12-.26-.04-.4-.07h0c0-.08,0-.17,0-.25"/><path class="st1" d="M607.74,752.88c-.17.26-.62.24-.62.66-.07.02-.14.03-.21.03-.2-.01-.39-.06-.49-.26-.09-.19-.17-.16-.26,0h0c-.09.08-.19.16-.28.24-.48,0-.32-.27-.23-.52,0-.37.2-.6.52-.74.09,0,.17,0,.26,0,0,.2.03.39.23.5.05.13-.06.48.29.22.23-.17.44-.5.77-.14"/><path class="st1" d="M604.93,751.77c.17-.08.35-.17.52-.25.11.08.14.18.06.3-.23.38-.41.77-.35,1.23,0,.08,0,.17-.01.25-.24,0-.49,0-.73,0,0-.1,0-.2,0-.3.05-.06.15-.16.15-.17-.55-.6-.03-.81.37-1.07h0Z"/><path class="st1" d="M605.17,753.05c-.06-.46.12-.85.35-1.23.08-.13.05-.22-.06-.31.18-.29.47-.23.74-.22.03.34-.26.67,0,1.01-.32.14-.52.37-.52.74-.17,0-.33.01-.5.02"/><path class="st1" d="M604.42,753.3c.24,0,.49,0,.73,0-.03.25-.07.57-.35.56-.24,0-.29-.35-.39-.57"/><path class="st1" d="M599.08,752.4c.06-.1.23-.23.26-.17.11.28-.17.1-.25.18h0"/><path class="st1" d="M603.38,753.26c-.18.24-.35.26-.51-.01h0c.17,0,.35.01.52.02h0Z"/><path class="st1" d="M605.9,753.56c.09-.08.19-.16.28-.25,0,.22-.04.43-.28.53h-.01c0-.1,0-.19.01-.29"/><path class="st1" d="M605.9,753.84s-.05.09-.06.09c-.08-.02-.06-.06.05-.1h.01"/><path class="st1" d="M606.17,753.32c.08-.16.17-.19.26,0-.09,0-.17,0-.26,0"/><path class="st1" d="M600.39,736.42c-.06.24-.36.36-.34.64.16.22.49.01.64.26-.09.3-1.08.27-.33.88h0c-.22.09-.43.17-.65.25-.1.04-.22.08-.09.2.05.05.15.04.22.06v.75c-.09,0-.18,0-.26-.01,0-.21-.04-.39-.25-.5-.5.24-1.15-.17-1.59.34.29.34.84.1,1.05.48-.08.52-.61.48-.82.81.18.21.38.42.57.64-.34.45-.64.91-.54,1.51-.38-.16-.58-.61-1.12-.59.81-.53.29-1.34.55-1.96.04-.09-.1-.21-.24-.22-.34-.02-.39.23-.44.48-.07-.01-.15-.02-.22-.02-.41-.4.51-.77.03-1.18-.63.73-.72.74-1.29.13.02-.21.51-.5-.08-.62-.6-.13-1.24-.51-1.72.26-.4-.33-.47-.81-.71-1.2h.26c.25,0,.51.01.76.01.28.36.66.55,1.09.51.54-.05.88.2,1.09.62.38-.2,0-.56.3-.7,1.02.81,1.07.79,1.59-.38.34-.6-.14-.67-.52-.82-.12-.05-.14-.18-.03-.32.28-.17.58.33.89.02-.45-.36-.04-.75-.03-1.13.27.08.53.38.81.16.33-.24-.07-.53-.02-.8,0-.04,0-.08,0-.12h0c.45.02.39-.23.26-.5,0-.08,0-.17,0-.25.34.09.67.18,1.01.27h0c.08.17.16.34.24.52-.12.04-.14.08-.06.1.01,0,.04-.06.06-.1.17,0,.34,0,.51,0-.2.3-.05,1.07-.82.61-.18-.11-.45-.17-.57.04-.16.28.08.45.3.58.18.11.37.2.55.3M598.44,737.4c.08.34.35.25.57.25.11,0,.15-.11.07-.15-.2-.09-.39-.26-.64-.1"/><path class="st1" d="M599.16,734.12c0,.08,0,.17,0,.25-.47-.03-.39.23-.26.51h0c-.26.25-.52.51-.78.76,0,.38-.42.76.03,1.13-.31.31-.6-.19-.88-.02-.1.14-.09.27.03.32.39.15.86.22.52.82-.76.09-1.14-.34-1.08-1.02.04-.45-.21-.33-.42-.41-.38-.15-.65.1-.94.25-.72.36-.72.37-1.42,0,.02.22.03.42.05.62-.48-.2-.58-.77-.99-1.03h0c.21-.1.26-.29.27-.51h0c.09-.07.46.15.26-.24,0-.18,0-.36,0-.53-.07-.08-.15-.15-.22-.23.67-.41.24-1.01.27-1.54.22-.15.26-.31,0-.46-.06-.04-.2-.04-.23,0-.18.26.21.27.22.46-.35.12-.17.63-.54.73.03-.28.06-.57-.23-.76-.06-.43-.14-.84.55-.74.41.06.83.03,1.25.04-.11.24-.27.47-.24.76,0,.38.16.5.53.35.14-.06.31-.06.47-.09,0,.08,0,.15-.01.23-.08.08-.16.17-.24.25-.33.86-.34.88.33,1.03.24.05.51.03.66.28.09.22.28.24.48.24.1-.08.19-.16.29-.24.2,0,.4.03.6.02.17,0,.33-.04.17-.27,0-.16,0-.32,0-.48.09-.09.18-.17.27-.26.03-.03.08-.04.09-.08.04-.08,0-.15-.1-.18-.08-.09-.17-.17-.25-.26.61-.46,1.07-.07,1.53.29M595.67,735.68c-.04-.06-.06-.14-.11-.19-.07-.07-.16-.05-.17.05,0,.06.04.16.08.18.04.02.13-.03.19-.05"/><path class="st1" d="M595.24,739.38c.58.61.66.6,1.29-.13.48.41-.44.78-.02,1.18-.2.4-.75.72-.29,1.27h0c-.21,0-.41.03-.52.25h0c-.09,0-.17,0-.26,0,0-.09,0-.17,0-.26q-.4-.72-1.01-.27h0c-.25-.05-.48-.43-.74-.03-.17,0-.35,0-.52,0-.24-.15-.38-.56-.77-.27h0c-.08-.25-.16-.51-.24-.77,0-.21.06-.4.26-.52h0c.03.34.08.64.49.28h.01c.2-.01.43.49.6-.1.17-.61.64.12.93-.13,0,.09,0,.18,0,.27-.1.06-.39-.13-.27.18.03.07.21-.06.26-.19.52,0,.55-.34.51-.74.09,0,.18,0,.27-.01"/><path class="st1" d="M594.01,737.32c-.01-.2-.03-.4-.05-.62.7.36.7.35,1.42,0,.29-.14.55-.4.94-.25.21.08.45-.04.42.41-.06.68.32,1.11,1.08,1.02-.51,1.17-.57,1.18-1.59.38-.3.15.08.5-.3.7-.21-.43-.55-.67-1.09-.62-.43.04-.81-.15-1.09-.51.09,0,.18,0,.26,0,.08-.08.17-.16.25-.24h0c.25.09.48.4.77.1.05-.05.09-.19.06-.22-.19-.2-.46-.1-.69-.13-.04,0-.08,0-.12,0-.09,0-.18,0-.26-.01M596.22,737.21c.02-.14-.03-.25-.17-.27-.19-.02-.31.1-.39.25-.06.12-.05.27.08.31.24.07.38-.09.47-.29"/><path class="st1" d="M593.53,735.01c0,.18,0,.36,0,.53-.09.08-.17.16-.26.24h0c-.22.1-.25.29-.27.5h0c-.24-.11-.4-.26-.39-.56,0-.23-.21-.2-.36-.22,0-.08,0-.16,0-.24,0-.09,0-.17,0-.26.09-.09.18-.17.27-.26.09,0,.18.01.27.02.07,0,.14,0,.21-.01.09.09.18.18.27.27.08,0,.16,0,.25-.01"/><path class="st1" d="M594.27,737.33s.08,0,.12,0c.23.03.49-.07.69.13.03.03-.01.17-.06.22-.29.3-.52-.01-.77-.09,0-.08,0-.17.01-.25"/><path class="st1" d="M594.47,740.14c0-.09,0-.18,0-.26,0-.17,0-.34.01-.51h0c.16.01.32.02.49.03.05.4.01.73-.51.74h.01Z"/><path class="st1" d="M592.99,737.81h-.26c-.21-.16-.1-.29.05-.4.11-.08.26-.11.31.04.03.1-.06.24-.1.36"/><path class="st1" d="M594.49,739.36c-.15-.07-.29-.15-.33-.32,0-.02.11-.1.14-.08.17.08.16.25.18.41h0"/><path class="st1" d="M592.43,739.83c.04-.17.03-.46.29-.38.19.05,0,.26-.02.39h0c-.09,0-.17,0-.25,0h0Z"/><path class="st1" d="M592.7,739.83c.08.09.16.17.24.26h-.01c-.08-.08-.16-.17-.24-.26h0Z"/><path class="st1" d="M594.27,737.58c-.08.08-.17.16-.25.25.08-.08.17-.16.25-.25"/><path class="st1" d="M592.22,738.05s-.11-.05-.11-.06c.02-.09.06-.07.1.06h0"/><path class="st1" d="M588.45,719.37c-.15-.02-.34,0-.38-.2-.03-.14.07-.23.21-.2.2.05.16.24.17.39h0"/><path class="st1" d="M588.97,716.38h-.12c-.03-.08-.05-.16-.05-.24,0-.1,0-.2,0-.31.29-.01.31.03.17.55"/><path class="st1" d="M588.8,715.83c0,.1,0,.2,0,.31-.17-.1-.16-.2,0-.31"/><path class="st1" d="M588.56,716.63c.2.11.14.18-.04.24,0-.08,0-.16.04-.24"/><path class="st1" d="M579.42,757.92c.1-.37.6-.16.72-.5.28.13.6.2.77.51-.18,0-.35,0-.53,0-.32,0-.64,0-.96,0"/><path class="st1" d="M582.18,759.51c-.34-.15-.51-.4-.5-.77.23-.08.39.02.5.22,0,.18,0,.35,0,.53h0Z"/><path class="st1" d="M582.18,760.03c-.22-.13-.18-.24.02-.36.11.05.31.09.31.15.02.23-.21.14-.33.21"/><path class="st1" d="M582.18,759.49c0-.18,0-.35,0-.53.22.18.25.35,0,.53"/><path class="st1" d="M595.7,728.96c.18-.35.42-.47.77-.22.34.24.68.19,1.02.01-.03.36.23.44.5.49,0,.09,0,.18-.01.27q-.13.75.8,1.69.32-1.14-.8-1.69c.13-.05.21-.14.24-.28,0-.07.02-.15.04-.22.78-.14,1.07.51,1.49.94.09.09.12.26-.02.3-.73.21-.33.67-.26,1.06-.02.17-.05.29-.26.35-.75.2-.75.21-.44.89.07.16.15.3-.04.45-.39.18-.69-.23-1.06-.19-.12-.4.5-.29.43-.58-.08-.32-.31-.56-.72-.54-.81.04-1.04-.56-1.21-1.19,0-.09,0-.17.01-.26.37-.22.69-.59,1.24-.34-.13-.57-.35-.74-.75-.49-.3.19-.46.47-.48.84-.16-.02-.33-.04-.5-.05l-.26-.47c.26-.04.59-.01.65-.36.03-.21-.21-.3-.38-.4"/><path class="st1" d="M599.46,731.32c-.07-.39-.47-.86.26-1.06.15-.04.11-.21.02-.3-.42-.44-.71-1.08-1.49-.94-.12-.23-.34-.26-.56-.31.1-.07.2-.15.31-.19q.82-.36.56-1.29c.08,0,.15,0,.23,0,.08,0,.15,0,.23.02-.03.08-.02.16.01.24.08.21.16.22.26.02,0-.09,0-.18,0-.27,0-.08-.02-.15-.06-.22.11,0,.21-.02.32-.03.02.2-.07.53.11.58.95.22,1.17,1.08,1.62,1.74h0c-.1.09-.19.17-.29.26-.44.25-.76.59-.86,1.21.59-.2.75-.68,1.11-.95.18-.09.35-.17.53-.25.09.25-.31.5,0,.76-.25.25-.5.51-.76.76-.86-.1-.91-.06-1.04.74-.17-.17-.35-.34-.52-.52"/><path class="st1" d="M595.7,728.96c.16.1.41.2.38.4-.05.34-.38.32-.65.36-.17,0-.33,0-.5-.01,0-.09-.01-.17-.02-.26h0c.14-.02.23-.1.27-.24h0c.1-.07.19-.15.29-.23.08,0,.15,0,.22-.02"/><path class="st1" d="M597.69,728.71c.22.05.45.08.56.31-.02.07-.03.14-.04.22-.07.01-.14.01-.22.01-.27-.06-.53-.13-.5-.49.06-.02.13-.04.19-.04"/><path class="st1" d="M597.91,728.13s.02-.08.04-.08c.04,0,.07.02.1.03-.01.03-.02.08-.04.08-.03,0-.07-.02-.1-.03"/><path class="st1" d="M595.48,728.98c-.1.08-.19.15-.29.23,0-.09,0-.17,0-.26.1,0,.19.02.29.03"/><path class="st1" d="M601.77,730.34c-.3-.25.1-.5,0-.75,0-.26.02-.52.02-.77h0c.25.11.72-.41.76.27-.33.01-.5.18-.52.51-.01.27.01.56-.27.74"/><path class="st1" d="M601.8,728.81c-.3-.25-.45-.57-.46-.97q.86.08.46.97h0Z"/><path class="st1" d="M601.25,729.84c-.36.27-.52.75-1.11.95.09-.62.42-.96.86-1.21.08.09.17.17.25.26"/><path class="st1" d="M601.28,729.32s.05-.1.06-.1c.08.02.06.06-.06.1h0Z"/><path class="st1" d="M606.19,752.3c-.26-.33.03-.67,0-1.01,0,0,.03,0,.03,0,.45.02.37-.23.27-.5.27-.2.61-.15.9-.22,0-.19-.12-.24-.24-.27-.3-.08-.45-.28-.3-.55.14-.25.36-.08.55-.02.12.04.25.05.37.07.25.33.5.33.76.01.09,0,.17,0,.26,0h0c.08.09.17.18.25.27-.34.27-.03.72-.28,1.01-.6.4-.87,1.29-1.79,1.23-.17-.02-.33-.29-.51-.01-.09,0-.17,0-.26,0"/><path class="st1" d="M609.32,748.54c-.06-.25-.4-.51.01-.76h0c.08.08.17.17.25.25,0,.21-.05.4-.26.51"/><path class="st1" d="M609.06,748.79c.09-.08.17-.16.26-.25-.09.25.29.52-.02.76-.09-.02-.18-.03-.26-.05,0-.16.02-.31.02-.47"/><path class="st1" d="M609.04,749.26c.09.02.18.03.26.05,0,.08,0,.17,0,.25-.17,0-.34,0-.5-.01.08-.1.16-.19.24-.28"/><path class="st1" d="M608.8,749.54c.17,0,.34,0,.5.01,0,.09,0,.17-.01.26-.17,0-.33-.01-.5-.02h0c0-.09,0-.17,0-.26"/><path class="st1" d="M608.79,749.8l.5.02c-.08.09-.17.17-.25.25-.08-.09-.17-.18-.25-.27"/><path class="st1" d="M609.58,748.03l-.25-.25c.1.07.45-.12.25.25"/><path class="st1" d="M609.86,746.77s.05-.11.06-.1c.09.02.07.06-.06.1h0Z"/><path class="st1" d="M609.15,744.22c0,.08,0,.17,0,.25-.08,0-.16,0-.25,0,.09-.09.17-.17.25-.25"/><path class="st1" d="M608.62,745.22c.08-.08.17-.17.25-.25-.08.08-.17.17-.25.25"/><path class="st1" d="M608.36,745.47c-.08-.09-.17-.17-.25-.26h0c.09,0,.17.01.26.01,0,.08,0,.16,0,.24"/><path class="st1" d="M608.98,751.48c-.14.05-.17-.04-.19-.14.08.02.14.07.19.14"/><path class="st1" d="M584.88,749.87c.05.59-.25,1.18-.03,1.78h0c-.08.07-.16.14-.24.21-.14-.02-.23-.1-.28-.23-.06-.11-.12-.18-.23-.04-.28-.09-.27-.28-.12-.46.26-.31.47-.65.59-1.04.04-.07.07-.14.08-.21.07,0,.14,0,.21,0"/><path class="st1" d="M584.82,753.19c-.48.38-.65-.16-.95-.32-.02-.16-.04-.32-.06-.48.36-.32.65.15.99.07.09.07.19.13.28.2h0c-.09.17-.18.35-.27.53"/><path class="st1" d="M584.67,749.88c-.02.07-.05.14-.08.21-.19-.07-.37-.25-.57-.16-.66.27-.67-.14-.65-.6.1-.02.2-.03.3-.05.15.03.3.06.45.09.18.17.37.34.55.51"/><path class="st1" d="M583.09,750.6c-.02.19.04.4-.12.57-.19-.19-.46-.36-.22-.67.02-.03.22.06.34.1h0Z"/><path class="st1" d="M583.81,752.39c.02.16.04.32.06.48-.34.03-.55-.11-.57-.47.17,0,.34,0,.51,0"/><path class="st1" d="M584.84,751.65c.25.1.4.28.49.53-.21,0-.38-.08-.49-.27v-.27s0,0,0,0Z"/><path class="st1" d="M583.08,750.59c.05-.11.23-.24.26-.18.11.29-.17.11-.26.18h0Z"/><path class="st1" d="M585.09,752.66c-.09-.06-.19-.13-.28-.2.09.07.19.13.28.2"/><path class="st1" d="M584.11,751.58c.1-.13.17-.07.22.04-.08,0-.15-.02-.22-.04"/><path class="st1" d="M584.85,751.64c0,.09,0,.18,0,.27-.08,0-.16-.02-.23-.05.08-.07.16-.14.24-.21"/><path class="st1" d="M583.98,757.98c-.14-.03-.22-.11-.23-.25.12.04.22.11.23.25"/><path class="st1" d="M568.96,723.97c-.11-.08-.12-.19-.09-.31.04-.14.14-.17.25-.09.05.04.1.14.09.19-.02.12-.11.2-.25.2"/><path class="st1" d="M570.89,722.66c-.11.18-.29.23-.49.23.09-.22.29-.23.49-.23"/><path class="st1" d="M568.21,730.25c.09-.26-.29-.53.02-.79.34-.08.95-.98.86.3-.02.3.4.2.64.23.16.25.17.51,0,.76-.34-.04-.69.6-1.01-.02,0-.21-.05-.4-.27-.49-.08,0-.15,0-.23,0"/><path class="st1" d="M569.46,731.8c-.16-.49.33-.36.51-.53.3.62-.2.48-.51.53"/><path class="st1" d="M570.62,730.13c-.02.12-.1.23-.22.22-.13-.01-.15-.15-.13-.26.01-.06.07-.16.12-.17.13-.01.21.08.23.2"/><path class="st1" d="M596.16,730.49c.18.63.4,1.22,1.21,1.19.41-.02.63.22.72.54.08.29-.55.18-.43.58h0c-.3.24-.64.06-.96.06-.65,0-.88.32-.84.92-.08.01-.15.02-.23.02-.09,0-.18-.02-.28-.03,0-.08,0-.15.01-.23,0-.17,0-.35.01-.52-.05-.11-.09-.23-.13-.34-.05-.12.08-.36-.19-.32-.07.01-.13.18-.16.29-.03.11-.02.24-.02.36h0c-.08.08-.16.15-.25.23-.08,0-.17.01-.25.03-.03-.29.13-.52.24-.76,0-.17.01-.35.02-.52.12,0,.26.01.34-.12-.11-.04-.22-.09-.34-.13h0c.14-.23.59-.35.27-.75.19-.08.38-.16.56-.25.38.32.48-.13.7-.25M596.52,732.14c.02-.07.08-.15.05-.2-.03-.05-.13-.1-.19-.1-.1.01-.13.1-.06.18.05.05.12.08.19.12"/><path class="st1" d="M594.12,731.73c-.05.26-.08.46-.47.4-.53-.09-1.12-.29-1.49.36-.28-.49.22-.85.19-1.3h0c.5.48,1.11.59,1.77.55h0Z"/><path class="st1" d="M592.54,734.74c-.09.09-.18.17-.27.26-.09,0-.17,0-.26,0h-.02c.09-.16.19-.33.28-.51,0-.08,0-.15,0-.23,0-.18.02-.35.02-.53,0-.33.17-.51.51-.52.29.19.26.47.23.76-.31.16-.5.4-.5.77"/><path class="st1" d="M592.3,733.73c0,.18-.02.35-.03.53-.03.02-.09.06-.09.06.03.06.06.11.1.17-.09.17-.19.34-.28.52-.08-.01-.17-.02-.25-.04,0-.08.01-.16.02-.24-.08-.17-.15-.34-.23-.51.08-.08.16-.16.24-.24.17-.08.34-.16.52-.24"/><path class="st1" d="M594.89,730.99c.32.4-.13.52-.27.75-.17,0-.34,0-.51-.01h0c.1-.24.2-.49.3-.73.16,0,.32,0,.48-.01"/><path class="st1" d="M594.63,731.74c.11.04.22.09.33.13-.08.13-.21.11-.33.12,0-.08,0-.17,0-.25"/><path class="st1" d="M591.79,733.97c-.08.08-.16.16-.25.24.04-.12-.1-.43.25-.24"/><path class="st1" d="M592.14,731.02c.06-.05.13-.07.2-.07.01.08.02.16,0,.24h0c-.07-.05-.14-.11-.21-.16"/><path class="st1" d="M592.02,734.99c.08,0,.17,0,.25,0,0,.09,0,.18,0,.26-.08-.09-.17-.18-.25-.27"/><path class="st1" d="M591.77,734.72c0,.08,0,.16-.02.24-.21-.1-.13-.17.02-.24"/><path class="st1" d="M577.93,754.57c-.15-.02-.3-.05-.45-.07-.07-.15-.13-.29-.34-.29-.77.02-.73-.46-.62-1.1.61.23,1.02.82,1.68.7h0c-.09.25-.18.51-.27.76h0Z"/><path class="st1" d="M578.47,752.55c0-.09.01-.17.02-.26.78-.04.78.47.72,1.01-.25,0-.49.01-.74.02-.89-.26.12-.51,0-.77"/><path class="st1" d="M583.37,736.88c.12.03.19.11.2.23-.16,0-.23-.07-.2-.23"/><path class="st1" d="M583.29,739.92h-.09s-.09,0-.09,0c0-.07,0-.2.01-.2.17-.04.16.09.17.2"/><path class="st1" d="M585.74,730.56c-.08.09-.17.19-.25.28-.28-.06-.51-.16-.46-.51.24.08.48.15.72.23"/><path class="st1" d="M584.7,731.8c.12.05.26.22.19.25-.29.13-.12-.16-.19-.25h0"/><path class="st1" d="M574.12,728.29c.08-.56.41-.64.91-.54.38.08.51.23.34.59-.02.08-.02.16-.01.24-.01.08-.02.16-.04.24-.52.1-.85-.25-1.2-.53"/><path class="st1" d="M587.49,759.06c.03.16.06.32.1.48.29,1.13.28,1.14-.88,1.05.03-.37-.06-.7-.24-1.02.17,0,.34,0,.51,0,.06.09-.12.36.17.26.06-.02-.07-.2-.18-.25-.02-.16-.02-.36-.19-.4-.28-.06-.29.19-.32.38-.08-.09-.16-.17-.25-.26l-.2-.23-.07-.03c.15-.16-.21-.58.29-.56.11.3.27.35.49.09.08-.01.17-.03.25-.04.09.1.18.19.28.29.07.08.15.16.22.23"/><path class="st1" d="M584.96,759.59c.16-.02.32-.04.48-.06.49.43.03.7-.24.8-.39.16-.33-.33-.49-.52,0,0,0-.02,0-.02.08-.07.16-.14.24-.21"/><path class="st1" d="M586.03,759.07c.06.08.13.16.19.23-.11-.04-.19-.1-.19-.23"/><path class="st1" d="M593.38,743.66c.11.56.34.95,1.01.77,0,.09,0,.17-.01.26-.44-.02-.87.02-1.27.23,0-.08,0-.17,0-.25-.06-.38-.43-.84.28-1h0Z"/><path class="st1" d="M591.43,741.06c.18.17.38.31.53.51.27.36.06.51-.3.55-.13-.07-.21-.17-.23-.32.03-.01.05-.02.08-.03-.02-.04-.05-.08-.07-.12,0-.2,0-.39,0-.59"/><path class="st1" d="M593.1,744.93c0,.09,0,.17,0,.26-.03-.06-.07-.12-.09-.18,0-.01.06-.05.09-.07"/><path class="st1" d="M591.44,741.65s.05.08.07.12c-.03.01-.05.02-.08.03,0-.05,0-.1,0-.15"/><path class="st1" d="M574.73,720.93c-.25,0-.5,0-.75,0,.68-.23.18-.82.34-1.22.08-.19-.33-.27-.57-.31-.03-.65.6-1.11.53-1.77.18-.03.37-.24.56-.03.19.22-.02.36-.13.52-.09.13-.03.22.09.3-.12.47.2.72.48,1-.22.4-.73.74-.29,1.29-.08.08-.17.16-.25.24h0Z"/><path class="st1" d="M573.75,719.39c-.05.11-.23.22-.25.17-.1-.28.16-.11.25-.17Z"/><path class="st1" d="M587.44,721.38c-.08.16-.23.3-.37.15-.2-.21-.11-.46.09-.66l.07.06c.07.15.14.3.22.45"/><path class="st1" d="M587.44,721.38c-.07-.15-.14-.3-.22-.45.29.05.71,0,.46.52-.08-.02-.16-.04-.24-.07"/><path class="st1" d="M581.54,752.34c.17.09.17.18,0,.26,0-.09,0-.18,0-.26"/><path class="st1" d="M575.59,729.86c-.08-.09-.17-.17-.25-.26h0c.08.09.17.17.25.26h0Z"/><path class="st1" d="M575.59,729.85s.07.07.1.11c-.02,0-.05,0-.07-.02-.02-.02-.03-.06-.04-.09h0"/><path class="st1" d="M586.79,756.26c-.6-.32-.45-.85-.2-1.23.22-.34.36.04.48.23-.48.23.12.76-.28,1.01"/><path class="st1" d="M587.58,755.01c-.08-.09-.17-.18-.25-.27.08-.03.15-.07.22-.09.15-.05.36-.16.41.04.07.28-.19.28-.38.32"/><path class="st1" d="M587.32,755.25c.08,0,.17,0,.25,0-.09.18-.17.16-.25,0"/><path class="st1" d="M595.69,727.46c.07-.18.04-.44.34-.41.03,0,.08.05.08.09.02.31-.24.27-.42.33h0"/><path class="st1" d="M586.74,758.57c-.22.26-.38.21-.49-.09.16.03.33.06.49.09"/><path class="st1" d="M585.23,758.01s.1.05.1.06c-.02.09-.06.07-.1-.06h0"/><path class="st1" d="M584.96,759.59c-.08.07-.16.14-.24.21.02-.13.11-.2.24-.21"/><path class="st1" d="M576.9,727.59s-.1-.05-.1-.06c.02-.08.06-.06.1.06h0Z"/><path class="st1" d="M575.37,728.58c-.01-.08,0-.16.01-.24.03.06.06.11.08.18,0,.01-.06.04-.09.06"/><path class="st1" d="M586.06,754.23c.06.18.24.47.03.54-.66.21-.29.86-.57,1.21-.61-.42-.64-.65-.21-1.53.04.12.08.14.1.06,0-.01-.06-.04-.1-.06.09-.23.27-.39.5-.49.09.09.17.18.25.27"/><path class="st1" d="M586.06,754.23c-.09-.09-.17-.18-.25-.27.1-.08.19-.15.29-.23-.01.17-.02.33-.04.5"/><path class="st1" d="M586.35,753.47c0,.08,0,.16-.01.24-.08,0-.15,0-.22.01.08-.08.16-.17.24-.25"/><path class="st1" d="M581.78,751.58c-.07.09-.13.17-.2.26.02-.13.08-.21.2-.26"/><path class="st1" d="M580.5,752.83c.57.23.46.62.24,1.03,0,.07,0,.14.02.21-.09.02-.17.04-.26.06,0-.43,0-.86,0-1.3"/><path class="st1" d="M577.92,754.57c.09-.26.18-.51.27-.77.43.44.29.68-.27.77"/><path class="st1" d="M576.29,718.69c.18.29.47.26.75.24-.08.18-.16.35-.23.53-.16.35-.42.51-.81.41.01-.34-.22-.43-.49-.47.2-.23.58-.32.54-.73.08,0,.16,0,.25.01"/><path class="st1" d="M576.05,718.68c.04.41-.34.5-.54.73-.08,0-.16,0-.23,0-.27-.28-.6-.53-.48-1,.08-.01.15,0,.23,0,.02.24.1.39.39.32.2-.05.42-.04.63-.06h0Z"/><path class="st1" d="M576.05,718.68c-.21.02-.43,0-.63.06-.29.07-.37-.08-.39-.32q.61-.55,1.02.26"/><path class="st1" d="M585.83,726.23s.07-.07.1-.1c0,.02,0,.05-.02.07-.02.02-.06.03-.09.04h0Z"/><path class="st1" d="M576,719.87c.39.1.65-.06.81-.41.21.04.46.11.45.34-.03.64.25,1.29,0,1.93-.43.11-.82-.14-1.31.05-.55.21-.94-.36-1.21-.84,0,0,0,0,0,0,.1,0,.2-.01.31-.02.25-.12.4-.31.43-.58.04-.32.29-.38.53-.46"/><path class="st1" d="M609.73,738.65c-.41.07-.93.01-.7.74.04.12-.29.58-.6.11-.11-.17-.19-.38-.32-.54-.51-.63.08-.53.4-.61.17.27.33.25.5,0h0c.27.03.58-.05.73.29"/><path class="st1" d="M609.74,739.4c-.08-.09-.16-.18-.24-.27.08.09.16.18.24.27"/><path class="st1" d="M579.42,757.92c.32,0,.64,0,.96,0,.02.08.03.16.03.25-.01.28-.06.57.21.78,0,.08,0,.16,0,.24-.08.01-.17.02-.25.04q-.99.23-.89-.85c0-.07-.05-.15-.08-.22,0-.08,0-.16.01-.24"/><path class="st1" d="M580.12,760.2c-.17-.09-.35-.17-.52-.26.41-.38.46-.05.52.26"/><path class="st1" d="M587.21,761.35c-.11-.06-.24-.23-.18-.26.29-.11.11.17.18.26h0Z"/><path class="st1" d="M587.49,759.06c-.07-.08-.15-.15-.22-.23.07.08.15.16.22.23"/><path class="st1" d="M580.62,758.96c-.26-.21-.22-.5-.21-.78.28.2.23.5.21.78"/><path class="st1" d="M568.44,730.24c.22.09.26.28.27.49-.21-.1-.25-.29-.27-.49"/><path class="st1" d="M594.89,730.99c-.16,0-.32,0-.48.01-.1,0-.2-.01-.3-.02h-.02c-.23-.57.23-1.01.3-1.52.17,0,.34,0,.51-.01,0,.09.01.17.02.26-.43.24-.1.51-.02.77-.03.01-.07.02-.09.04-.01.01-.01.04-.02.07.04-.04.07-.07.11-.11.16.01.32.02.48.04.02.08.04.16.07.24-.19.08-.38.16-.56.25"/><path class="st1" d="M592.62,730.94c.07-.27.26-.41.49-.52.16.47.54.57.98.57h.02c-.52.8-1,.1-1.49-.05"/><path class="st1" d="M606.45,752.3c.17-.28.34,0,.5.01-.09.16-.18.33-.28.49-.2-.11-.22-.3-.23-.5"/><path class="st1" d="M580.77,754.07c-.02-.07-.03-.14-.02-.21.04.05.08.1.12.15-.03.02-.06.04-.09.06"/><polygon class="st1" points="594.04 728.59 594.02 728.52 594.08 728.53 594.04 728.59"/><path class="st1" d="M595.19,729.21c-.04.14-.13.21-.27.24.09-.08.18-.16.27-.24"/><path class="st1" d="M583.76,741.45c.14.02.22.1.23.24-.15-.02-.21-.11-.23-.24"/><path class="st1" d="M599.02,727.25c-.08,0-.15-.01-.23-.01.09-.19.26-.2.43-.21.04.07.06.14.06.22-.09,0-.18,0-.27,0"/><path class="st1" d="M592.62,730.94c.49.14.97.85,1.49.04.1,0,.2.01.3.02-.1.24-.2.49-.3.74-.66.04-1.27-.07-1.77-.55,0-.08,0-.16,0-.24.09,0,.19,0,.28-.01"/><path class="st1" d="M605.54,732.94c.13.1.27.18.39.29.58.47.63.98.17,1.55-.18.22-.37.43-.59.68-.17-.42-.23-.83-.52-1.14-.11-.12-.25-.4-.13-.41.67-.04-.12-1.08.69-.97,0,0-.01,0-.01,0"/><path class="st1" d="M607.89,743.43c-.57.06-.86-.27-.53-.69.36-.44.23-.73.05-1.1.18-.08.18-.17,0-.25h0c0-.08,0-.17,0-.25,0-.08,0-.17,0-.25.08,0,.17,0,.25,0,.08,0,.17,0,.25.01,0,.08,0,.16,0,.25,0,.09,0,.17,0,.26.17.31.2.6.04.95-.14.33-.33.7-.09,1.08"/><path class="st1" d="M607.12,737.64c-.95-.72-1.15-.68-1.45.29-.18-.73-.05-1.24.33-1.3.38-.06.91.42,1.12,1.01"/><path class="st1" d="M604.18,738.02c-.27.06-.53.11-.86.18,0-.46.02-.81.61-.68.21.1.25.29.25.5"/><path class="st1" d="M608.19,741.14c.06-.3.13-.59.2-.95q.28.6-.2.95h0"/><path class="st1" d="M604.43,738.27c.03-.12.04-.25.11-.34.11-.15.29-.14.44-.06.05.03.1.14.09.2-.05.19-.23.2-.39.2-.08,0-.16,0-.25,0,0,0,0,0,0,0"/><path class="st1" d="M604.49,734.71c0-.08,0-.16,0-.24.12.1.27.18.37.3.11.14.08.32-.09.39-.09.04-.27.04-.33-.02-.13-.13.01-.29.05-.43"/><path class="st1" d="M606.77,735.52c.31.02.66-.04.88.39-.43.11-.66-.14-.89-.39h0Z"/><path class="st1" d="M607.06,734.35c.04.05.12.1.12.15,0,.14-.11.19-.22.14-.05-.02-.08-.13-.07-.19.02-.05.11-.07.17-.1"/><path class="st1" d="M606.5,736.03c-.11.04-.22.09-.33.11-.13.02-.25-.05-.26-.17-.01-.26.2-.2.33-.16.1.03.17.14.26.22h0Z"/><path class="st1" d="M605.84,739.1c-.06.04-.12.11-.17.11-.13-.02-.18-.12-.12-.23.03-.05.15-.08.19-.06.05.02.06.12.09.19"/><path class="st1" d="M606.76,735.53c-.16-.02-.33-.02-.4-.2-.01-.03.07-.15.1-.14.18.04.25.18.31.34h0"/><path class="st1" d="M609,738.36c-.16.26-.33.27-.5,0,.16,0,.33,0,.5,0"/><path class="st1" d="M606.5,736.03c.11.06.23.23.18.25-.29.11-.11-.17-.17-.26h0"/><path class="st1" d="M607.93,740.89c-.08,0-.17,0-.25-.01.09-.17.17-.17.25.01"/><path class="st1" d="M607.43,740.88c0,.08,0,.17,0,.25-.17-.09-.17-.17,0-.25"/><path class="st1" d="M607.93,741.4c0-.09,0-.17,0-.26.08,0,.17,0,.25,0h0c-.08.08-.17.17-.25.25"/><path class="st1" d="M599.46,731.32c.17.17.35.35.52.52.08.08.16.16.23.24-.16.41.2.24.33.27.32.06.6.17.5.55-.08.29-.06.75-.55.69-1.14-.14-.34.48-.33.79-.34-.09-.67-.18-1.01-.27-.46-.36-.92-.74-1.53-.29-.52.12-1.07.34-1.28-.44.39-.29,1.16.29,1.3-.57h0c.37-.04.67.37,1.06.19.2-.14.11-.29.04-.45-.31-.68-.31-.69.44-.89.21-.05.24-.18.26-.35"/><path class="st1" d="M601.66,736.45c.06.41.15.81.18,1.22.02.19-.16.28-.34.28-.13,0-.24-.04-.24-.21,0-.53-.23-.95-.63-1.29.15-.25.26-.55.61-.17.09.1.28.12.43.18"/><path class="st1" d="M600.22,732.08c-.08-.08-.16-.16-.23-.24.13-.8.18-.84,1.04-.74q-.46.5-.02.99c-.28,0-.53-.01-.78-.02"/><path class="st1" d="M600.41,734.9c-.08-.17-.16-.35-.24-.52q.75-.42.75.52c-.17,0-.34,0-.51,0h0Z"/><path class="st1" d="M594.38,744.69c0-.09,0-.17.01-.26.07-.19.23-.42.18-.57-.24-.66.14-.69.61-.67h0c.34.51,1.16.89.46,1.69-.02.03.18.25.27.38,0,.16,0,.32,0,.48-.22-.07-.27-.43-.61-.34-.55.14-.63-.05-.49-.59.09-.36-.26-.1-.42-.12"/><path class="st1" d="M595.18,743.19c-.1-.46-.69-.45-.87-.92.67-.05,1.19.58,1.87.33.12-.05.53.15.42.48-.13.41-.36.08-.57.05-.28-.04-.57.03-.86.06h0Z"/><path class="st1" d="M596.22,741.69c-.46-.55.09-.87.29-1.27.08,0,.15.01.22.02.3.61-.23.87-.51,1.24"/><path class="st1" d="M594.44,741.4q.62-.45,1.01.27c-.45.33-.69-.12-1.01-.27"/><path class="st1" d="M597.58,743.55c-.19.04-.28-.11-.38-.22-.13-.16-.28-.36-.01-.49.19-.09.26.13.33.27.06.14.21.27.06.44"/><path class="st1" d="M592.42,741.11c.39-.29.54.12.77.27-.43.41-.67.28-.77-.27"/><path class="st1" d="M593.71,741.37c.26-.4.5-.02.74.03-.28.94-.5.08-.74-.03"/><path class="st1" d="M599.23,744.04c.39.42.3.67-.27.75-.04-.3.15-.51.27-.75"/><path class="st1" d="M598.51,743c-.01.08-.02.17-.03.25-.25-.09-.42-.27-.51-.52.17-.03.36-.27.52.02,0,.09,0,.17.01.25"/><path class="st1" d="M593.39,743.67c.08-.08.15-.19.25-.24.12-.06.32-.21.39,0,.07.19-.14.23-.29.24-.12,0-.24,0-.35,0h0"/><path class="st1" d="M598.75,743.87s-.09.12-.14.12c-.15.02-.33.06-.43-.13,0,0,.06-.07.09-.08.16-.02.33-.05.48.08"/><path class="st1" d="M595.71,741.93c.11-.21.31-.24.52-.25.01.14.2.31.02.42-.19.11-.35-.12-.54-.17"/><path class="st1" d="M596.6,744.76c-.05.09-.12.12-.19.04-.05-.05-.07-.13-.1-.2.07-.02.16-.07.2-.04.05.03.06.13.09.19"/><path class="st1" d="M595.9,745.74c0-.16,0-.32,0-.48.27.16.28.32,0,.48"/><path class="st1" d="M595.45,741.93c.09,0,.17,0,.26,0-.09.19-.18.18-.26,0"/><path class="st1" d="M599.42,747.59c-.25-.08-.5-.17-.76-.25-.09-.09-.18-.19-.27-.28.07-.14.13-.39.22-.41.63-.1.32-.53.33-.85.6-.07,1.19-.13,1.79-.2.08.28-.24.29-.28.48h0c-.45.14-.79.46-1.07.8-.28.34.04.39.29.45-.09.09-.17.17-.26.25"/><path class="st1" d="M598.89,748.1c-.3.3-.39.92-1.03.73-.08,0-.16,0-.24,0h-.01c0-.09.01-.17.01-.25,0-.09.01-.18.02-.28.12.01.32.03.32-.1,0-.13-.18-.12-.31-.11-.3-.62.15-.53.5-.53.08.21.16.21.24,0h.26c.08.18.16.35.24.53"/><path class="st1" d="M597.65,748.1c.12,0,.31-.02.31.11,0,.12-.2.11-.32.1,0-.07,0-.14.01-.21"/><path class="st1" d="M598.4,747.58c-.09.2-.17.2-.25,0,.08,0,.16,0,.25,0"/><path class="st1" d="M598.5,742.75c-.17-.29-.35-.04-.52-.02-.11-.61.19-1.07.54-1.52.32-.67.68-1.32,1.31-1.76,0-.25,0-.5,0-.75.77.27.49,1,.49,1.45,0,.61.37.2.51.34h0c0,.25,0,.5,0,.75-.09,0-.18,0-.27,0-.12-.13-.2-.08-.28.06-.15.24-.21.55-.49.7-.1-.36-.19-.71-.31-1.12q-.53.91.31,1.12c-.02.14-.17.43-.03.41.72-.12,1.29-.01,1.67.66.96-.43.48.54,1.06.8-1.54-.07-2.71-.22-3.47-1.37-.17.08-.34.16-.5.24"/><path class="st1" d="M607.77,749.78c-.12-.02-.25-.04-.37-.07-.19-.06-.42-.23-.55.02-.15.28,0,.47.3.55.12.03.23.08.24.27-.29.07-.63.02-.9.22-.1,0-.19,0-.29,0-.31.19-.64.28-1,.24.02-.28.14-.46.44-.5.16-.02.2-.12.09-.26,0-.08,0-.16,0-.24-.09-.23-.3-.26-.51-.28,0-.08,0-.16,0-.24.32-.15.52-.39.52-.76.52-.6,1.03-.25,1.53.03h0c0,.52.38.52.75.52.09.08.17.17.26.25-.21,0-.4.05-.52.25h0Z"/><path class="st1" d="M600.55,741.25c.09,0,.18,0,.27,0,.18-.02.4.11.55-.1-.24-.17-.04-.71-.55-.66h0c.18-.31.29-.64.27-1.01h0c.34.01.68.02,1.02.02h0c-.07.27-.74.36-.3.78.28.27.42-.07.55-.27.16.02.44.1.31.25-.43.52-.17.89.17,1.28h0c-.65-.43-1.14.28-1.77.26-.54-.01-.45-.28-.52-.56"/><path class="st1" d="M602.67,737.49c-.03.08-.11.19-.09.23.54.73.14,1.16-.47,1.54h0c-.42-.26-.79-.3-1.03.23h0c-.23.06-.52.21-.5-.22.02-.38-.07-.73-.25-1.06h0c.59,0,1.18.02,1.78.03.01.14-.24.28-.02.42.02.02.09,0,.11-.03.16-.18.06-.29-.1-.39.02-.28-.04-.58.25-.76.09,0,.19.01.28.02"/><path class="st1" d="M604.01,746.66c-.15.29-.19.52.26.51h0c.08.17.16.34.24.52h0c-.38-.07-.63.26-1,.34-.55.12-1.12.48-1.32,1.13h0c-.68-.41-.67-.4-.17-.85.11-.09.13-.28.2-.42h0c1.04-.23,1.27-.49,1.3-1.5h0c.17.09.34.17.5.26"/><path class="st1" d="M599.47,745.26c.42-.3.52-.9,1.14-1,.15.24.34.53.56.88-.55.38-1.14.05-1.7.12"/><path class="st1" d="M605.75,748.73c0,.37-.2.61-.52.76-.53-.31-.72.22-.98.45-.3.26-.53.38-.81.02.68-.43,1.3-.95,2.06-1.23h0c.09,0,.17,0,.26,0h0Z"/><path class="st1" d="M603.44,749.96c-.2.11-.25.3-.27.51h0c-.43-.36-1.12-.51-1-1.29h0c.25,0,.51,0,.76.02h0c.15.26.55.37.5.77Z"/><path class="st1" d="M604.81,744.14c-.1.68-.19,1.35-.28,2.03-.09,0-.18,0-.27,0-.46,0-.35-.25-.23-.51h0c.06-.06.18-.14.17-.16-.28-.68.14-1.02.61-1.34"/><path class="st1" d="M605.08,743.88q-.91-.19-.64-.8c.23-.54.39-.53.91.05h0c-.67.05-.4.43-.27.76h0Z"/><path class="st1" d="M605.73,750.25c.11.13.07.23-.09.26-.3.04-.42.22-.44.5-.38-.11-.75-.12-1.02.23-.09,0-.17-.02-.26-.02.34-.82,1.05-.94,1.81-.97"/><path class="st1" d="M601.72,746.87c.19-.03.57-.28.38.22-.13.33,0,.55.11.81h0c-.35.17-.69.4-.58-.33.03-.22-.02-.47.09-.69Z"/><path class="st1" d="M602.36,740.02c-.14.2-.28.53-.55.27-.43-.42.23-.51.3-.78.17,0,.34.01.51.02-.09.17-.17.33-.26.5"/><path class="st1" d="M603.18,750.46c.19.04.49.08.37.33-.11.24-.43.47-.69.29-.27-.18.05-.31.18-.44.05-.06.1-.12.15-.19h0Z"/><path class="st1" d="M603.45,744.69c-.06.19-.18.36-.43.35-.18,0-.39-.16-.31-.3.09-.15.33-.24.52-.3.14-.05.22.08.22.25"/><path class="st1" d="M604.03,745.65c-.41,0-.82-.01-1.23-.02.43-.27.85-.36,1.23.02h0Z"/><path class="st1" d="M603.46,736.84c-.14.05-.25-.03-.28-.13-.04-.17-.43-.16-.23-.44.03-.04.16-.03.23,0,.22.07.28.27.33.47,0,.03-.03.07-.05.1"/><path class="st1" d="M602.62,739.52c-.17,0-.34-.01-.51-.02h0c0-.08,0-.17,0-.25h0c.24.02.47.02.7.04.13.01.26.12.2.23-.1.18-.26.02-.4,0"/><path class="st1" d="M602.84,741.55c.2.02.22-.5.51-.19.07.07.11.29.07.33-.23.19-.43.1-.58-.14h0"/><path class="st1" d="M602.67,737.49c-.09,0-.19-.01-.28-.02,0-.14-.2-.35,0-.41.23-.07.45.1.59.3-.11.04-.21.09-.32.13"/><path class="st1" d="M602.12,744.63c-.07.06-.13.14-.17.13-.16-.03-.29-.12-.28-.3,0-.03.15-.09.19-.06.1.05.17.15.25.23"/><path class="st1" d="M604.03,740.55s-.09.13-.14.14c-.14.01-.2-.09-.16-.21.02-.05.13-.09.18-.08.04,0,.08.1.11.15"/><path class="st1" d="M605.81,742.22c.07.03.14.06.21.1-.03.07-.05.18-.1.2-.05.02-.14-.05-.21-.08.03-.07.06-.14.1-.21"/><path class="st1" d="M603.51,746.4c-.15-.02-.33-.02-.4-.2-.01-.03.07-.14.09-.14.17.04.24.19.3.33h0Z"/><path class="st1" d="M604.26,746.16c.09,0,.18,0,.27,0,.12.27.25.54-.25.49-.01-.08-.02-.16-.04-.24.01-.08.02-.17.02-.25"/><path class="st1" d="M601.72,746.87c-.15-.06-.3-.14-.33-.32,0-.02.11-.1.15-.09.18.08.17.25.18.41Z"/><path class="st1" d="M598.5,742.75c.17-.08.33-.16.5-.24-.02.31-.18.48-.49.5,0-.08-.01-.17,0-.25"/><path class="st1" d="M605.23,749.73c.21.02.41.05.51.28-.15-.12-.56.22-.51-.28"/><path class="st1" d="M606.2,750.77c.09,0,.19,0,.29,0,.11.27.18.53-.27.5,0-.17-.01-.34-.02-.51"/><path class="st1" d="M602.65,742.15s0,.07-.01.08c-.03.02-.07.03-.1.02-.1-.05-.09-.11.02-.13.03,0,.06.02.09.03"/><path class="st1" d="M603.4,742.49s-.07.04-.1.03c-.1-.03-.11-.08-.03-.13.02-.01.07,0,.1.02.02.01.01.05.02.08"/><path class="st1" d="M603.92,751.22c.09,0,.17.02.26.03-.07.16-.18.26-.36.16.03-.06.07-.12.1-.19"/><path class="st1" d="M602.61,747.3s.05.07.05.1c0,.03-.04.06-.07.09-.08-.07-.07-.14.02-.19"/><path class="st1" d="M604.22,739.19s-.07.03-.11.02c-.01,0-.03-.08-.02-.08.1-.07.14-.04.13.06"/><path class="st1" d="M603.63,739.79c-.11-.06-.24-.24-.18-.27.31-.11.11.17.18.27h0Z"/><path class="st1" d="M604.94,751.76c-.11-.06-.24-.23-.18-.26.3-.11.11.17.18.26h0Z"/><path class="st1" d="M603.39,753.27c-.17,0-.35,0-.52,0,.18-.28.35-.27.52,0"/><path class="st1" d="M600.46,746.09s.11.05.1.06c-.02.09-.06.07-.1-.06h0"/><path class="st1" d="M604.25,746.41c.01.08.03.16.04.24-.09,0-.18,0-.27.01.08-.09.16-.17.23-.25"/><path class="st1" d="M601.74,745.86s.05-.1.06-.1c.08.02.06.06-.06.1h0Z"/><path class="st1" d="M601.74,745.86s-.07.07-.1.1c0-.02,0-.05.02-.06.02-.02.06-.03.08-.04h0Z"/><path class="st1" d="M603.11,740.54s.07-.07.11-.1c0,.02,0,.05-.02.06-.02.02-.06.03-.09.04Z"/><path class="st1" d="M603.11,740.54s-.05.11-.06.1c-.09-.02-.07-.06.06-.1Z"/><path class="st1" d="M603.63,739.79s.11.05.1.06c-.02.09-.06.07-.1-.06h0Z"/><path class="st1" d="M607.42,741.38c.17.09.17.17,0,.26,0-.08,0-.17,0-.26"/><path class="st1" d="M600.28,747.72c-.07.02-.15.06-.19.04-.05-.03-.09-.13-.08-.18.02-.1.1-.12.17-.04.05.05.07.12.1.19"/><path class="st1" d="M597.62,748.84h.24c0,.09,0,.17,0,.26-.08-.08-.17-.17-.25-.26"/><path class="st1" d="M607.28,748.76c-.5-.28-1.01-.63-1.53-.03,0,0,0,0,0,0-.02-.29.14-.51.27-.75.2-.02.41.06.57-.12-.16-.18-.37-.12-.57-.13-.51.2-1.03.46-1.53-.04h0c.26-.13.77.34.79-.44.01-.41.68-.48,1.03-.33.42.17.96.4.93,1.01-.01.28-.12.56.03.84"/><path class="st1" d="M608.86,746.25c.1.3.36.57.29.91-.78.47-1.11-1.29-2-.15.12-.65.26-.98.83-.85.28.06.58.06.88.08h0"/><path class="st1" d="M608.03,749.28c-.37,0-.74,0-.75-.52.16,0,.5.25.41-.08-.14-.52.04-.66.47-.74.19-.04.39-.21.53.03.12.2-.09.38-.14.56-.53,0-.51.39-.53.75"/><path class="st1" d="M605.08,743.88c-.13-.33-.4-.71.27-.76.07.14.19.28.21.43.03.26.62.34.27.66-.41.37-.47-.26-.74-.34"/><path class="st1" d="M608.03,749.28c.01-.36,0-.75.53-.75h0c0,.15-.25.3-.03.44.12.07.23-.06.29-.18.08,0,.16,0,.24,0,0,.16-.02.31-.02.47-.08.09-.16.19-.24.28,0,.09,0,.17,0,.26-.09,0-.17,0-.26,0h0c-.08-.09-.17-.18-.25-.27-.09-.08-.17-.17-.26-.25"/><path class="st1" d="M608.11,745.21c-.35-.05-.47.3-.73.41q-.08-.75.73-.41Z"/><path class="st1" d="M606.58,745.44c.08.09.18.16.23.26.06.13.22.28.03.41-.07.04-.23,0-.32-.06-.17-.1-.31-.23-.46-.35h0c.21,0,.4-.04.51-.25h0Z"/><path class="st1" d="M608.82,748.79c-.07.11-.18.25-.29.18-.22-.13.02-.29.03-.44.09.09.18.17.26.26"/><path class="st1" d="M604.27,747.17c.06-.12.25-.24.27-.18.1.32-.19.11-.28.17h0"/><path class="st1" d="M607.73,747.59s.07-.04.09-.03c.1.03.11.08.02.13-.02.01-.07,0-.1-.02-.02-.01-.01-.05-.02-.08"/><path class="st1" d="M606.06,745.69s-.1-.05-.1-.06c.02-.09.06-.07.11.06,0,0,0,0,0,0"/><path class="st1" d="M599.82,739.46c-.63.44-.99,1.09-1.31,1.76-.19-.21-.38-.43-.57-.64.22-.34.74-.29.82-.81-.21-.39-.76-.14-1.05-.48.45-.52,1.1-.1,1.6-.34,0,.2.03.4.25.5.08,0,.17,0,.25.01"/><path class="st1" d="M600.35,738.2c.17.33.26.68.25,1.06-.02.44.27.28.5.22.02.37-.09.7-.27,1.01-.13-.13-.51.27-.51-.34,0-.45.28-1.19-.49-1.45-.07-.02-.17-.01-.22-.06-.13-.13-.01-.16.09-.2.22-.08.43-.16.65-.25"/><path class="st1" d="M598.11,735.63c.26-.25.52-.51.78-.76,0,.04.01.09,0,.12-.04.27.35.57.02.8-.29.21-.54-.08-.81-.17"/><path class="st1" d="M598.44,737.4c.24-.16.44.01.64.1.08.04.04.15-.07.15-.22,0-.49.09-.57-.25"/><path class="st1" d="M598.9,734.87c-.13-.28-.21-.53.26-.51.12.28.19.52-.26.51"/><path class="st1" d="M599.57,739.45c-.21-.1-.24-.3-.25-.5.2.11.24.3.25.5"/><path class="st1" d="M600.41,734.9s-.05.1-.06.1c-.08-.02-.06-.06.06-.1,0,0,0,0,0,0"/><path class="st1" d="M597.66,732.81c-.14.86-.91.28-1.3.57.2.79.76.57,1.28.44.08.09.17.17.25.26,0,.09,0,.17,0,.26-.09.09-.18.17-.27.26-.09,0-.18-.01-.27-.02-.08-.08-.15-.17-.23-.25-.09,0-.18,0-.28,0-.07,0-.15,0-.22,0-.09.08-.18.15-.27.23-.08,0-.17,0-.25,0-.29,0-.51-.15-.75-.29-.09-.08-.17-.17-.26-.25h0c.08-.09.16-.17.24-.26.09.01.19.02.28.03.06.16.15.25.34.16-.03-.06-.07-.12-.1-.18-.04-.6.19-.91.84-.92.32,0,.65.18.96-.05"/><path class="st1" d="M595.36,734.27c.23.14.46.29.75.29.09.19.17.16.25,0,.09-.07.18-.15.27-.23.07.14.15.14.22,0,.09,0,.18,0,.28,0,.08.08.15.17.23.25.09,0,.18.01.27.02,0,.16,0,.32,0,.48-.09,0-.18,0-.26.01-.08-.18-.17-.17-.25,0-.09.08-.17.16-.25.24-.1.08-.19.16-.29.24-.1-.2-.27-.24-.48-.24-.15-.25-.41-.23-.66-.28-.66-.15-.66-.17-.33-1.03,0,0,0,0,0,0,.02.19-.11.43.11.53.1.05.13-.17.15-.29"/><path class="st1" d="M592.54,734.74c0-.37.18-.61.5-.77.37-.1.19-.61.54-.73h0c-.02.52.41,1.13-.27,1.54-.01.08-.02.16-.03.23-.09-.09-.18-.18-.27-.27-.08-.18-.15-.14-.21.01-.09,0-.18-.01-.26-.02"/><path class="st1" d="M594.36,733.28c.08-.01.16-.02.25-.03.08-.08.16-.16.25-.23h0c.17,0,.34,0,.51,0,0,.17,0,.35,0,.52-.16.03-.32.03-.47.09-.37.15-.53.03-.53-.35"/><path class="st1" d="M597.36,735.09c.09,0,.18,0,.26,0,.15.22,0,.26-.17.27-.2,0-.4-.01-.6-.02.09-.08.17-.16.25-.24h.13s.13,0,.13,0Z"/><path class="st1" d="M593.58,733.24c0-.19-.4-.2-.22-.46.02-.04.17-.03.23,0,.25.15.21.31,0,.46h0Z"/><path class="st1" d="M595.67,735.68c-.07.02-.15.07-.19.05-.05-.03-.09-.12-.08-.18.01-.1.1-.12.17-.05.05.05.07.12.11.19"/><path class="st1" d="M596.09,735.33c.2,0,.38.04.47.24-.2,0-.39-.02-.47-.24"/><path class="st1" d="M593.28,735.78l.26-.24c.2.39-.17.17-.26.24"/><path class="st1" d="M593.02,736.29c.01-.21.05-.41.27-.51,0,.21-.06.4-.27.51"/><path class="st1" d="M593.29,735.02c0-.08.01-.16.03-.24.07.08.15.15.22.23-.08,0-.16.01-.25,0"/><path class="st1" d="M597.9,734.34c0-.09,0-.17,0-.26.1.03.14.1.1.18-.02.03-.06.05-.09.08"/><path class="st1" d="M592.7,739.84c.08.09.16.18.24.26-.41.37-.46.07-.49-.27.08,0,.17,0,.25,0"/><path class="st1" d="M594.46,740.13c-.05.13-.24.26-.26.19-.11-.31.17-.12.27-.18h0"/><path class="st1" d="M596.22,737.21c-.1.19-.24.36-.47.29-.13-.04-.14-.19-.08-.31.08-.15.2-.27.39-.25.14.02.18.13.17.27"/><path class="st1" d="M592.81,734.75c.06-.15.13-.19.21-.01-.07,0-.14,0-.21.01"/><path class="st1" d="M597.97,729.51q1.12.55.8,1.69-.93-.94-.8-1.69h0"/><path class="st1" d="M596.19,730.25c.01-.36.18-.65.48-.83.4-.25.62-.08.75.49-.55-.25-.86.11-1.24.33h.01"/><path class="st1" d="M594.91,730.47c-.08-.26-.41-.52.02-.77.17,0,.33,0,.5.01.09.16.17.32.26.47-.1.1-.2.21-.3.31-.16-.01-.32-.02-.48-.03h0Z"/><path class="st1" d="M595.39,730.5c.1-.1.2-.2.3-.31.17.02.33.04.5.05h-.01c0,.07,0,.16-.01.25-.22.12-.33.57-.71.25-.03-.08-.05-.16-.07-.24"/><path class="st1" d="M597.99,729.24c.07,0,.15,0,.22-.01-.02.14-.1.23-.24.28h0c0-.08,0-.17.01-.26"/><path class="st1" d="M599.02,727.25c.09,0,.18,0,.27,0,0,.09,0,.18,0,.26-.09,0-.17-.01-.26-.01-.04-.08-.04-.16-.01-.25"/><path class="st1" d="M599.03,727.49c.09,0,.17.01.26.02-.1.2-.18.2-.26-.02"/><path class="st1" d="M608.53,749.8c-.26.32-.51.32-.76-.01h0c.25,0,.51,0,.76.01h0Z"/><path class="st1" d="M595.37,733.02c-.17,0-.34,0-.51,0,0-.12,0-.25.02-.36.03-.11.09-.28.16-.29.27-.04.14.2.19.32.05.11.09.23.13.34"/><path class="st1" d="M596.52,732.14c-.06-.04-.14-.07-.19-.12-.07-.08-.05-.17.06-.18.06,0,.16.04.19.1.02.05-.03.13-.05.2"/><path class="st1" d="M595.86,733.78c.03.06.07.12.1.18-.18.09-.28,0-.34-.16.08,0,.16,0,.23-.02"/><path class="st1" d="M594.86,733.01c-.08.08-.17.16-.25.23.08-.08.16-.16.25-.23"/><path class="st1" d="M592.29,734.49c-.03-.06-.07-.11-.1-.17,0,0,.06-.04.09-.06,0,.08.01.16,0,.23"/><path class="st1" d="M586.99,759.57c-.17,0-.34,0-.51,0h0c.04-.2.04-.44.32-.39.17.03.17.24.19.4h0Z"/><path class="st1" d="M586.98,759.57c.11.06.24.23.18.25-.29.11-.11-.16-.17-.26h0Z"/><path class="st1" d="M576,719.87c-.24.08-.49.15-.53.46-.03.27-.18.46-.43.58-.02-.07-.04-.14-.05-.22-.44-.55.07-.89.29-1.29.08,0,.16,0,.23,0,.27.04.5.13.49.47"/><path class="st1" d="M574.99,720.7c.01.07.03.14.05.21-.1,0-.2.01-.31.02.09-.08.17-.16.25-.24"/><path class="st1" d="M585.3,754.45s.1.05.1.06c-.02.08-.06.06-.1-.06h0Z"/><path class="st1" d="M594.9,730.47s-.07.07-.11.11c0-.02,0-.05.02-.07.02-.02.06-.02.09-.04h0Z"/><path class="st1" d="M599.78,742q-.84-.21-.31-1.12c.11.41.21.77.31,1.12h0"/><path class="st1" d="M600.82,740.5c.51-.05.3.49.55.66-.15.21-.36.08-.55.1,0-.25,0-.5,0-.75"/><path class="st1" d="M608.53,749.8c-.25,0-.51-.01-.76-.02.11-.2.31-.24.51-.25.08.09.17.18.25.27"/><path class="st1" d="M602.12,739.25c0,.09,0,.17,0,.26-.34,0-.68-.01-1.02-.02.23-.54.61-.5,1.03-.24"/><path class="st1" d="M602.13,738.24c.16.1.26.22.1.39-.02.03-.09.04-.11.03-.23-.15.03-.28.02-.43h0"/><path class="st1" d="M606.02,747.98c-.13.24-.29.46-.27.75-.09,0-.17,0-.26,0-.07-.1-.12-.22-.2-.31-.12-.13-.3-.22-.41-.03-.1.19.06.29.24.31.12.02.25.01.37.02-.76.28-1.39.8-2.06,1.23.05-.4-.35-.5-.5-.77.35,0,.54-.18.59-.51,0-.04-.1-.14-.14-.13-.36.06-.42.35-.45.65-.25,0-.51-.01-.76-.02.2-.66.77-1.01,1.32-1.13.36-.08.61-.41.99-.35.5.49,1.01.24,1.52.04,0,.08,0,.17,0,.25"/><path class="st1" d="M606.02,747.98c0-.08,0-.17,0-.25.2.01.41-.05.57.13-.16.18-.38.11-.57.12"/><path class="st1" d="M595.36,734.27c-.03.12-.05.33-.15.29-.22-.1-.09-.35-.11-.53.09.08.17.17.26.25"/><path class="st1" d="M596.85,734.34c-.08.14-.15.13-.22,0,.08,0,.15,0,.22,0"/><path class="st1" d="M597.36,734.58c-.08-.08-.15-.17-.23-.25.08.08.15.17.23.25"/><path class="st1" d="M596.35,734.56c-.08.17-.16.19-.25,0,.08,0,.17,0,.25,0"/><path class="st1" d="M597.36,735.09h-.13s-.13,0-.13,0c.08-.17.17-.18.25,0"/><path class="st1" d="M602.95,749.19c.03-.3.08-.59.45-.65.04,0,.14.09.14.13-.05.34-.24.51-.59.51h0"/><path class="st1" d="M605.5,748.72c-.12,0-.25,0-.37-.02-.18-.02-.34-.12-.24-.31.11-.2.29-.1.41.03.08.09.14.2.2.31h0Z"/></g></svg>